<svg width="250" height="250" viewBox="0 0 250 250" fill="none" xmlns="http://www.w3.org/2000/svg">
<g filter="url(#filter0_d_2005_1076)">
<path d="M125 234.999C185.751 234.999 234.999 185.751 234.999 125C234.999 64.2492 185.751 15.001 125 15.001C64.2492 15.001 15.001 64.2492 15.001 125C15.001 185.751 64.2492 234.999 125 234.999Z" fill="url(#paint0_linear_2005_1076)"/>
</g>
<path d="M124.999 212.839C173.511 212.839 212.838 173.512 212.838 125C212.838 76.4879 173.511 37.161 124.999 37.161C76.4869 37.161 37.16 76.4879 37.16 125C37.16 173.512 76.4869 212.839 124.999 212.839Z" fill="#C0C7C9"/>
<path opacity="0.56" d="M124.999 212.839C173.511 212.839 212.838 173.512 212.838 125C212.838 76.4879 173.511 37.161 124.999 37.161C76.4869 37.161 37.16 76.4879 37.16 125C37.16 173.512 76.4869 212.839 124.999 212.839Z" fill="url(#paint1_radial_2005_1076)"/>
<path d="M186.516 62.306C202.066 78.153 211.661 99.865 211.661 123.821C211.661 172.333 172.333 211.66 123.822 211.66C99.867 211.66 78.154 202.066 62.308 186.515C78.247 202.758 100.446 212.838 125.001 212.838C173.513 212.838 212.839 173.512 212.839 124.999C212.838 100.444 202.758 78.246 186.516 62.306Z" fill="#EDEDED"/>
<path d="M125.46 200.92C167.135 200.92 200.92 167.135 200.92 125.46C200.92 83.7846 167.135 50 125.46 50C83.7846 50 50 83.7846 50 125.46C50 167.135 83.7846 200.92 125.46 200.92Z" fill="url(#paint2_radial_2005_1076)"/>
<path d="M125 200.458C166.674 200.458 200.458 166.674 200.458 125C200.458 83.3257 166.674 49.542 125 49.542C83.3257 49.542 49.542 83.3257 49.542 125C49.542 166.674 83.3257 200.458 125 200.458Z" fill="url(#paint3_linear_2005_1076)"/>
<path d="M16.009 126.01C16.009 65.259 65.258 16.01 126.009 16.01C156.129 16.01 183.416 28.119 203.28 47.729C183.334 27.525 155.633 15 125 15C64.249 15 15.001 64.249 15.001 125C15.001 155.633 27.526 183.336 47.729 203.281C28.119 183.416 16.009 156.129 16.009 126.01Z" fill="#FDFDFD"/>
<path d="M125.617 115.758V114.862H112.95V115.758H125.617ZM124.875 125.431V124.569H112.951V125.431H124.875ZM125.799 135.693V134.798H112.95V135.693H125.799ZM113.382 135.693V114.862H112.395V135.693H113.382ZM107.836 135.693V134.798H95.759V135.693H107.836ZM96.19 135.693V114.862H95.203V135.693H96.19ZM87.192 135.121C88.489 134.537 89.596 133.728 90.52 132.706L89.811 131.997C88.99 132.942 87.98 133.683 86.777 134.23C85.575 134.773 84.278 135.047 82.882 135.047C81.563 135.047 80.336 134.798 79.197 134.304C78.057 133.811 77.071 133.118 76.237 132.224C75.409 131.333 74.754 130.287 74.281 129.099C73.808 127.906 73.572 126.625 73.572 125.246C73.572 123.871 73.805 122.592 74.269 121.41C74.728 120.229 75.384 119.197 76.225 118.314C77.066 117.429 78.049 116.741 79.167 116.248C80.288 115.757 81.5 115.511 82.819 115.511C84.194 115.511 85.47 115.776 86.652 116.311C87.834 116.846 88.838 117.585 89.658 118.53L90.367 117.821C89.422 116.794 88.302 115.994 87.009 115.417C85.712 114.841 84.314 114.555 82.82 114.555C81.361 114.555 80.006 114.826 78.749 115.371C77.498 115.914 76.403 116.671 75.471 117.634C74.534 118.6 73.808 119.732 73.294 121.024C72.785 122.317 72.528 123.725 72.528 125.246C72.528 126.744 72.79 128.15 73.31 129.451C73.837 130.757 74.571 131.9 75.516 132.888C76.461 133.874 77.566 134.641 78.844 135.184C80.116 135.727 81.492 136 82.973 136C84.495 136 85.899 135.705 87.192 135.121Z" fill="black"/>
<path d="M174.006 135.138C175.332 134.563 176.486 133.763 177.471 132.734L175.469 130.761C174.793 131.525 173.961 132.126 172.974 132.565C171.988 133.008 170.828 133.227 169.493 133.227C168.361 133.227 167.325 133.029 166.381 132.626C165.436 132.225 164.616 131.657 163.914 130.914C163.22 130.176 162.68 129.303 162.298 128.295C161.916 127.293 161.728 126.19 161.728 125.001C161.728 123.809 161.916 122.711 162.298 121.704C162.68 120.697 163.22 119.824 163.914 119.084C164.616 118.344 165.435 117.774 166.381 117.375C167.325 116.975 168.361 116.774 169.493 116.774C170.743 116.774 171.859 116.989 172.839 117.42C173.812 117.854 174.636 118.449 175.317 119.21L177.318 117.206C176.333 116.222 175.206 115.44 173.927 114.864C172.656 114.29 171.176 114.002 169.493 114.002C167.95 114.002 166.53 114.284 165.223 114.85C163.922 115.416 162.78 116.195 161.804 117.192C160.83 118.189 160.076 119.354 159.541 120.688C159.008 122.025 158.736 123.463 158.736 125.003C158.736 126.525 159.007 127.949 159.541 129.284C160.076 130.624 160.83 131.792 161.804 132.799C162.78 133.808 163.928 134.589 165.241 135.158C166.554 135.721 167.985 136.003 169.521 136.003C171.189 136 172.679 135.714 174.006 135.138ZM154.762 135.693V114.308H151.869V135.693H154.762ZM146.813 135.693V114.308H143.92V132.517L144.782 135.693H146.813ZM145.18 131.81L132.025 114.309L131.657 118.159L144.783 135.694L145.18 131.81ZM132.887 135.693V117.666L132.025 114.309H129.99V135.694H132.887V135.693Z" fill="black"/>
<defs>
<filter id="filter0_d_2005_1076" x="-8.99899" y="-8.99902" width="267.998" height="267.998" filterUnits="userSpaceOnUse" color-interpolation-filters="sRGB">
<feFlood flood-opacity="0" result="BackgroundImageFix"/>
<feColorMatrix in="SourceAlpha" type="matrix" values="0 0 0 0 0 0 0 0 0 0 0 0 0 0 0 0 0 0 127 0" result="hardAlpha"/>
<feOffset/>
<feGaussianBlur stdDeviation="12"/>
<feComposite in2="hardAlpha" operator="out"/>
<feColorMatrix type="matrix" values="0 0 0 0 0 0 0 0 0 0 0 0 0 0 0 0 0 0 0.1 0"/>
<feBlend mode="normal" in2="BackgroundImageFix" result="effect1_dropShadow_2005_1076"/>
<feBlend mode="normal" in="SourceGraphic" in2="effect1_dropShadow_2005_1076" result="shape"/>
</filter>
<linearGradient id="paint0_linear_2005_1076" x1="172.754" y1="172.754" x2="-8.45959" y2="-8.45962" gradientUnits="userSpaceOnUse">
<stop stop-color="#CED5D8"/>
<stop offset="0.4683" stop-color="#DFE3E5"/>
<stop offset="1" stop-color="#F7F7F7"/>
</linearGradient>
<radialGradient id="paint1_radial_2005_1076" cx="0" cy="0" r="1" gradientUnits="userSpaceOnUse" gradientTransform="translate(127.651 129.617) scale(97.2143 97.2143)">
<stop offset="0.822" stop-color="white"/>
<stop offset="0.8474" stop-color="#FBFBFB"/>
<stop offset="0.8702" stop-color="#F1F1F1"/>
<stop offset="0.8919" stop-color="#DEDEDE"/>
<stop offset="0.9131" stop-color="#C4C4C4"/>
<stop offset="0.9338" stop-color="#A3A3A3"/>
<stop offset="0.9541" stop-color="#7A7A7A"/>
<stop offset="0.9742" stop-color="#4A4A4A"/>
<stop offset="0.9936" stop-color="#141414"/>
<stop offset="1"/>
</radialGradient>
<radialGradient id="paint2_radial_2005_1076" cx="0" cy="0" r="1" gradientUnits="userSpaceOnUse" gradientTransform="translate(125.46 125.459) scale(75.4602)">
<stop/>
<stop offset="0.085" stop-color="#0A0A0A"/>
<stop offset="0.2268" stop-color="#232323"/>
<stop offset="0.408" stop-color="#4D4D4D"/>
<stop offset="0.6217" stop-color="#878787"/>
<stop offset="0.8597" stop-color="#D0D0D0"/>
<stop offset="1" stop-color="white"/>
</radialGradient>
<linearGradient id="paint3_linear_2005_1076" x1="174.587" y1="175.744" x2="90.198" y2="89.388" gradientUnits="userSpaceOnUse">
<stop stop-color="#F7F7F7"/>
<stop offset="0.5317" stop-color="#DFE3E5"/>
<stop offset="1" stop-color="#CED5D8"/>
</linearGradient>
</defs>
</svg>
