<svg width="24" height="24" viewBox="0 0 24 24" fill="none" xmlns="http://www.w3.org/2000/svg">
<mask id="mask0_2168_2568" style="mask-type:alpha" maskUnits="userSpaceOnUse" x="0" y="0" width="24" height="24">
<rect width="24" height="24" fill="#C4C4C4"/>
</mask>
<g mask="url(#mask0_2168_2568)">
</g>
<g clip-path="url(#clip0_2168_2568)">
<path d="M23.9836 12.2245C23.9836 11.2413 23.902 10.5237 23.7254 9.77963H12.239V14.2176H18.9812C18.8453 15.3205 18.1113 16.9815 16.4801 18.0976L16.4572 18.2461L20.089 20.9963L20.3406 21.0209C22.6514 18.9347 23.9836 15.8653 23.9836 12.2245Z" fill="#4285F4"/>
<path d="M12.239 23.9176C15.5421 23.9176 18.3151 22.8545 20.3406 21.0209L16.4801 18.0976C15.447 18.8018 14.0604 19.2934 12.239 19.2934C9.00375 19.2934 6.25791 17.2074 5.27909 14.324L5.13562 14.3359L1.35923 17.1927L1.30984 17.3269C3.32165 21.2334 7.45404 23.9176 12.239 23.9176Z" fill="#34A853"/>
<path d="M5.279 14.324C5.02073 13.5799 4.87126 12.7826 4.87126 11.9588C4.87126 11.1349 5.02073 10.3377 5.26541 9.5936L5.25857 9.43513L1.43486 6.53241L1.30976 6.59058C0.480595 8.21168 0.00482178 10.0321 0.00482178 11.9588C0.00482178 13.8855 0.480595 15.7058 1.30976 17.3269L5.279 14.324Z" fill="#FBBC05"/>
<path d="M12.239 4.62403C14.5362 4.62403 16.0858 5.59402 16.9694 6.40461L20.4221 3.10928C18.3016 1.1826 15.5421 0 12.239 0C7.45404 0 3.32165 2.68406 1.30984 6.59056L5.2655 9.59359C6.25791 6.7102 9.00375 4.62403 12.239 4.62403Z" fill="#EB4335"/>
</g>
<defs>
<clipPath id="clip0_2168_2568">
<rect width="24" height="24" fill="white"/>
</clipPath>
</defs>
</svg>
