<svg width="212" height="217" viewBox="0 0 212 217" fill="none" xmlns="http://www.w3.org/2000/svg">
<path d="M54.6325 44.8939C54.5156 43.9199 54.9588 43.2917 55.9084 43.1797C56.8581 43.0677 57.4327 43.5595 57.5496 44.553L57.9246 47.7234C58.0366 48.6974 57.5934 49.3256 56.6438 49.4376C55.6941 49.5496 55.1195 49.0577 55.0026 48.0643L54.6325 44.8939ZM55.9717 48.0204C56.0253 48.449 56.225 48.6048 56.5415 48.5707C56.8581 48.5366 57.0285 48.3321 56.9652 47.9035L56.5805 44.5968C56.5269 44.1683 56.3126 44.0124 56.0107 44.0514C55.7087 44.0904 55.5237 44.2852 55.587 44.7137L55.9717 48.0204ZM59.7216 42.8047L60.6177 42.6976L57.9441 52.7881L57.048 52.8953L59.7216 42.8047ZM59.8239 47.8646C59.707 46.8906 60.155 46.2575 61.1047 46.1504C62.0543 46.0432 62.629 46.5302 62.7458 47.5188L63.116 50.6892C63.2328 51.6632 62.7897 52.2914 61.8352 52.4034C60.8807 52.5154 60.3109 52.0235 60.194 51.0301L59.8239 47.8646ZM61.168 50.9862C61.2167 51.4148 61.4163 51.5755 61.7329 51.5365C62.0494 51.4976 62.2199 51.2979 62.1615 50.8694L61.7719 47.5627C61.7232 47.139 61.5089 46.9831 61.2069 47.0172C60.905 47.0513 60.7199 47.2558 60.7832 47.6795L61.168 50.9862Z" fill="#263238"/>
<path d="M65.3757 54.5949L54.0969 55.9146C53.8405 55.9448 53.5827 55.872 53.38 55.7122C53.1772 55.5524 53.0462 55.3187 53.0158 55.0624L51.6619 43.4329C51.638 43.2165 51.6628 42.9975 51.7344 42.7919C51.806 42.5863 51.9227 42.3993 52.0759 42.2446L56.7802 37.6133C57.0068 37.3886 57.3022 37.2464 57.6191 37.2093C57.936 37.1722 58.2562 37.2425 58.5286 37.4088L64.1728 40.8177C64.3588 40.9306 64.5164 41.0845 64.6337 41.2677C64.751 41.4509 64.8249 41.6584 64.8498 41.8745L66.2134 53.504C66.2465 53.7596 66.177 54.018 66.02 54.2225C65.863 54.427 65.6313 54.5609 65.3757 54.5949V54.5949Z" stroke="#263238" stroke-linecap="round" stroke-linejoin="round"/>
<path d="M58.5577 38.9038C58.5752 39.0467 58.5498 39.1916 58.4848 39.32C58.4197 39.4484 58.318 39.5545 58.1925 39.625C58.0669 39.6954 57.9233 39.7269 57.7798 39.7155C57.6363 39.704 57.4995 39.6502 57.3867 39.5608C57.2739 39.4714 57.1902 39.3504 57.1464 39.2133C57.1025 39.0762 57.1004 38.9292 57.1403 38.7909C57.1802 38.6526 57.2603 38.5293 57.3705 38.4367C57.4807 38.3441 57.6159 38.2863 57.759 38.2708C57.9489 38.2488 58.1397 38.3032 58.2894 38.4219C58.4392 38.5406 58.5357 38.714 58.5577 38.9038V38.9038Z" stroke="#263238" stroke-linecap="round" stroke-linejoin="round"/>
<path d="M57.8418 30.771C57.8418 30.771 60.043 39.2447 57.8418 39.0012" stroke="#263238" stroke-linecap="round" stroke-linejoin="round"/>
<path d="M57.2817 37.2968C57.7103 34.9397 59.8677 30.9658 59.8677 30.9658" stroke="#263238" stroke-linecap="round" stroke-linejoin="round"/>
<path d="M57.8418 38.9866C57.713 38.9784 57.59 38.9304 57.4897 38.8492C57.3894 38.7681 57.3167 38.6579 57.2817 38.5337" stroke="#263238" stroke-linecap="round" stroke-linejoin="round"/>
<path d="M67.6646 33.9024C69.6386 35.4978 71.1516 37.5907 72.0475 39.9655" stroke="#263238" stroke-linecap="round" stroke-linejoin="round"/>
<path d="M44.8683 41.4216C45.4342 39.2446 46.5062 37.2319 47.9972 35.5476C49.4881 33.8632 51.3558 32.5548 53.4481 31.7289C55.5404 30.903 57.7982 30.5829 60.0376 30.7948C62.277 31.0066 64.4347 31.7443 66.3351 32.9479" stroke="#263238" stroke-linecap="round" stroke-linejoin="round"/>
<path d="M49.3145 55.7782C46.7394 53.5426 45.0541 50.4555 44.5663 47.0805" stroke="#263238" stroke-linecap="round" stroke-linejoin="round"/>
<path d="M58.134 59.2846C55.5288 59.1805 53.0021 58.3635 50.8291 56.9227" stroke="#263238" stroke-linecap="round" stroke-linejoin="round"/>
<path d="M72.8218 42.9459C73.3708 46.6934 72.4089 50.5054 70.1477 53.5438C67.8865 56.5822 64.5111 58.5981 60.7638 59.1483" stroke="#263238" stroke-linecap="round" stroke-linejoin="round"/>
<path d="M22.5447 90.4649L40.4752 93.9412L38.3868 104.713C38.3461 104.923 38.2236 105.108 38.0462 105.228C37.8688 105.348 37.6511 105.392 37.441 105.352L21.0902 102.181C20.8801 102.141 20.6947 102.018 20.575 101.841C20.4552 101.663 20.4108 101.446 20.4515 101.236L22.5399 90.4639L22.5447 90.4649Z" stroke="#263238" stroke-width="0.998248" stroke-linecap="round" stroke-linejoin="round"/>
<path d="M41.099 94.187L22.2247 90.5489L22.7777 87.6797C22.8183 87.4692 22.9408 87.2834 23.1184 87.1633C23.296 87.0431 23.514 86.9984 23.7245 87.0389L41.0304 90.3747C41.2342 90.419 41.4129 90.5404 41.5293 90.7135C41.6457 90.8866 41.6906 91.098 41.6548 91.3034L41.1018 94.1726L41.099 94.187Z" stroke="#263238" stroke-linecap="round" stroke-linejoin="round"/>
<path d="M33.6764 88.9417L31.1085 88.4467L28.1664 103.711L30.7343 104.206L33.6764 88.9417Z" stroke="#263238" stroke-linecap="round" stroke-linejoin="round"/>
<path d="M32.3915 88.6943C32.3915 88.6943 36.8475 85.4412 38.9075 86.4249C40.9675 87.4087 39.9497 90.1505 38.9075 89.9508" stroke="#263238" stroke-linecap="round" stroke-linejoin="round"/>
<path d="M34.1544 89.0304C34.1544 89.0304 37.7777 87.2285 38.3036 88.0564C38.8296 88.8843 37.2663 89.6489 36.0634 89.4151" stroke="#263238" stroke-linecap="round" stroke-linejoin="round"/>
<path d="M32.5132 88.4703C32.5132 88.4703 34.393 85.0614 34.1495 83.9607H35.4011C35.4011 83.9607 35.8101 85.2561 34.3492 87.472" stroke="#263238" stroke-linecap="round" stroke-linejoin="round"/>
<path d="M32.3914 88.6943C32.3914 88.6943 29.4694 84.0192 27.1854 84.1701C24.9014 84.3211 24.8381 87.2382 25.8754 87.4379" stroke="#263238" stroke-linecap="round" stroke-linejoin="round"/>
<path d="M30.6285 88.3534C30.6285 88.3534 27.9354 85.3292 27.1416 85.8941C26.3478 86.459 27.5166 87.7544 28.7195 87.9833" stroke="#263238" stroke-linecap="round" stroke-linejoin="round"/>
<path d="M32.3622 88.4411C32.3622 88.4411 31.8752 84.5695 32.5229 83.6491L31.3541 83.1621C31.3541 83.1621 30.497 84.214 31.0327 86.8145" stroke="#263238" stroke-linecap="round" stroke-linejoin="round"/>
<path d="M45.6523 83.2205C47.66 85.7573 48.956 88.7829 49.4071 91.9864" stroke="#263238" stroke-linecap="round" stroke-linejoin="round"/>
<path d="M15.1372 86.1425C16.4569 83.5911 18.3607 81.3875 20.6933 79.7112C23.026 78.0349 25.7217 76.9332 28.5607 76.4961C31.3998 76.0589 34.302 76.2985 37.0309 77.1954C39.7598 78.0923 42.2383 79.6211 44.2645 81.6573" stroke="#263238" stroke-linecap="round" stroke-linejoin="round"/>
<path d="M16.5981 105.281C14.0249 101.768 12.798 97.4479 13.1405 93.1065" stroke="#263238" stroke-linecap="round" stroke-linejoin="round"/>
<path d="M26.6156 112.133C23.3927 111.273 20.4693 109.54 18.1663 107.127" stroke="#263238" stroke-linecap="round" stroke-linejoin="round"/>
<path d="M49.524 95.9311C49.1497 100.753 46.8754 105.229 43.2013 108.374C39.5272 111.52 34.7542 113.077 29.9321 112.703" stroke="#263238" stroke-linecap="round" stroke-linejoin="round"/>
<path d="M121.658 47.3727L120.129 46.5935C120.356 45.922 120.432 45.2087 120.353 44.5043C120.84 44.7381 121.356 44.9913 121.814 45.2007C121.789 45.8289 121.75 46.5692 121.658 47.3727Z" stroke="#263238" stroke-linecap="round" stroke-linejoin="round"/>
<path d="M123.884 46.2039C124.368 46.451 124.887 46.625 125.422 46.7202C125.983 49.7145 125.544 52.8103 124.171 55.5299C123.776 56.2994 119.632 54.1761 120.022 53.4066C120.91 51.5043 121.463 49.4631 121.658 47.3727C121.751 46.5692 121.804 45.829 121.828 45.2007C122.695 45.6098 123.455 45.9848 123.884 46.2039Z" stroke="#263238" stroke-linecap="round" stroke-linejoin="round"/>
<path d="M128.826 36.5468C129.983 37.1382 130.889 38.125 131.379 39.3276C131.87 40.5302 131.913 41.869 131.5 43.1005C131.087 44.3321 130.247 45.3747 129.13 46.0389C128.014 46.7031 126.697 46.9448 125.417 46.7201C124.882 46.6249 124.363 46.451 123.879 46.2039C123.45 45.9848 122.69 45.6098 121.823 45.2007C121.336 44.9718 120.849 44.7381 120.362 44.5043C119.164 43.954 118.005 43.4475 117.406 43.2527L122.646 33.0258C123.737 33.8245 127.599 35.9186 128.826 36.5468Z" stroke="#263238" stroke-linecap="round" stroke-linejoin="round"/>
<path d="M117.557 28.1851C119.025 30.0166 120.734 31.6416 122.637 33.0161L117.397 43.243C115.167 42.5126 112.849 42.0851 110.506 41.9719L108.475 41.8648L116.267 26.6072L117.557 28.1851Z" stroke="#263238" stroke-linecap="round" stroke-linejoin="round"/>
<path d="M106.113 42.2885L115.249 24.44C115.32 24.3053 115.44 24.2037 115.585 24.1573C115.73 24.1108 115.887 24.1232 116.023 24.1917L116.695 24.5374C116.831 24.6072 116.934 24.7277 116.981 24.8726C117.028 25.0176 117.017 25.1753 116.949 25.3118L116.281 26.6121L108.489 41.8696L107.827 43.1699C107.793 43.2371 107.745 43.2968 107.688 43.3457C107.63 43.3945 107.563 43.4316 107.491 43.4546C107.42 43.4777 107.344 43.4864 107.268 43.4801C107.193 43.4739 107.12 43.4529 107.053 43.4183L106.376 43.0725C106.306 43.0399 106.243 42.9933 106.191 42.9357C106.14 42.878 106.1 42.8104 106.076 42.737C106.051 42.6637 106.042 42.5861 106.048 42.5089C106.055 42.4318 106.077 42.3568 106.113 42.2885V42.2885Z" stroke="#263238" stroke-linecap="round" stroke-linejoin="round"/>
<path d="M106.386 31.1606L102.865 29.3587" stroke="#263238" stroke-linecap="round" stroke-linejoin="round"/>
<path d="M110.51 25.5115L108.29 21.6252" stroke="#263238" stroke-linecap="round" stroke-linejoin="round"/>
<path d="M104.219 37.8081L99.7722 38.2805" stroke="#263238" stroke-linecap="round" stroke-linejoin="round"/>
<path d="M133.653 20.997C130.579 18.1497 126.799 16.1773 122.705 15.2845" stroke="#263238" stroke-linecap="round" stroke-linejoin="round"/>
<path d="M126.835 59.9908C130.25 58.5452 133.276 56.3139 135.666 53.4783C138.056 50.6427 139.743 47.2829 140.59 43.6723C141.436 40.0616 141.419 36.3021 140.538 32.6995C139.658 29.097 137.939 25.7532 135.523 22.9401" stroke="#263238" stroke-linecap="round" stroke-linejoin="round"/>
<path d="M102.334 56.1874C106.599 59.8537 112.04 61.8654 117.665 61.856" stroke="#263238" stroke-linecap="round" stroke-linejoin="round"/>
<path d="M94.5176 42.6245C95.3047 46.8627 97.244 50.8021 100.123 54.0105" stroke="#263238" stroke-linecap="round" stroke-linejoin="round"/>
<path d="M117.665 14.7391C111.416 14.7391 105.423 17.2214 101.004 21.6399C96.5859 26.0584 94.1036 32.0512 94.1036 38.3" stroke="#263238" stroke-linecap="round" stroke-linejoin="round"/>
<path d="M75.9386 76.2321C73.9614 74.4643 71.9111 75.2581 70.8641 75.8571C70.6547 74.6591 69.8901 72.5942 67.2798 72.2436C64.426 71.8638 62.0884 74.6445 62.853 78.521C63.4082 81.3115 65.1906 83.878 66.1451 85.0711C66.2571 85.2172 66.3643 85.3438 66.4519 85.4461H66.9389C68.4778 85.3828 71.5751 85.076 74.0491 83.6831C77.4726 81.7352 78.0814 78.1509 75.9386 76.2321Z" stroke="#263238" stroke-linecap="round" stroke-linejoin="round"/>
<path d="M64.8351 87.2626C64.8351 87.2626 64.7036 87.5012 64.5234 87.92" stroke="#263238" stroke-linecap="round" stroke-linejoin="round"/>
<path d="M64.0267 89.2787C63.2475 91.8257 62.7118 96.1892 66.861 98.8336C77.1171 105.374 80.5699 89.9459 72.7049 91.3339C67.3041 92.3079 73.0166 106.582 81.4709 103.704" stroke="#263238" stroke-linecap="round" stroke-linejoin="round" stroke-dasharray="2.98 2.98"/>
<path d="M82.177 103.436C82.3913 103.338 82.6104 103.231 82.8296 103.114" stroke="#263238" stroke-linecap="round" stroke-linejoin="round"/>
<path d="M69.5298 197.694C69.5298 197.694 63.7394 201.634 61.4067 201.371C61.1505 201.357 60.9072 201.254 60.72 201.079C59.2006 199.51 57.9782 196.754 57.9782 196.754C57.9782 196.754 58.7039 195.751 60.9392 198.415L62.3563 197.114L59.4344 194.163C59.4344 194.163 61.0853 192.853 63.8904 194.524C63.793 194.319 61.9862 190.384 63.3498 185.027L56.5319 178.448L62.5804 173.178L63.0673 172.769C63.0673 172.769 63.4472 173.144 64.0413 173.743C64.6355 174.342 65.4585 175.063 66.3497 175.847C68.4828 177.722 71.0638 179.743 72.1937 179.743C74.2293 179.675 69.5298 197.694 69.5298 197.694Z" fill="white"/>
<path opacity="0.4" d="M65.0543 195.113C65.0543 195.113 61.7525 198.522 61.4067 201.371C61.1505 201.357 60.9072 201.254 60.72 201.079C59.2006 199.51 57.9782 196.754 57.9782 196.754C57.9782 196.754 58.7039 195.751 60.9392 198.415L62.3563 197.114L59.4344 194.163C59.4344 194.163 61.0853 192.853 63.8904 194.524C63.793 194.319 61.9862 190.384 63.3498 185.027L56.5319 178.448L62.5804 173.178L64.0413 173.729C64.6403 174.294 65.4585 175.049 66.3497 175.833C65.0689 177.708 62.3271 181.589 62.3271 181.589L64.6988 184.803C64.6988 184.803 63.2378 192.907 65.0543 195.113Z" fill="#D3EEFE"/>
<path d="M69.5298 197.694C69.5298 197.694 63.7394 201.634 61.4067 201.371C61.1505 201.357 60.9072 201.254 60.72 201.079C59.2006 199.51 57.9782 196.754 57.9782 196.754C57.9782 196.754 58.7039 195.751 60.9392 198.415L62.3563 197.114L59.4344 194.163C59.4344 194.163 61.0853 192.853 63.8904 194.524C63.793 194.319 61.9862 190.384 63.3498 185.027L56.5319 178.448L62.5804 173.178L63.0673 172.769C63.0673 172.769 63.4472 173.144 64.0413 173.743C64.6355 174.342 65.4585 175.063 66.3497 175.847C68.4828 177.722 71.0638 179.743 72.1937 179.743C74.2293 179.675 69.5298 197.694 69.5298 197.694Z" stroke="#263238" stroke-linecap="round" stroke-linejoin="round"/>
<path d="M62.3757 197.114C62.6967 196.155 63.2161 195.274 63.9 194.528" stroke="#263238" stroke-linecap="round" stroke-linejoin="round"/>
<path d="M170.387 151.829C169.473 153.161 168.369 154.352 167.109 155.364C156.463 164.179 131.919 168.513 131.919 168.513C131.919 168.513 131.096 169.745 129.83 171.498C127.56 174.649 123.844 179.49 120.815 181.915C119.534 182.943 118.38 183.537 117.499 183.376L122.106 200.387L124.166 207.77C124.166 207.77 103.001 217.023 66.8025 206.445C66.8025 206.445 66.3886 201.721 66.6954 200.713C66.6954 200.665 66.7246 200.616 66.7441 200.562C67.1126 199.891 67.5936 199.288 68.1661 198.78C68.1661 198.78 67.9616 195.741 67.8593 192.649C67.7424 190.677 67.7669 188.7 67.9323 186.732C68.1904 185.173 69.33 181.404 69.9047 179.553L70.2407 178.477L68.4388 161.607L67.9226 156.738L67.8934 156.484C67.8934 156.45 67.8934 156.411 67.8934 156.363L67.6109 153.757L58.2996 156.601C58.2996 156.601 58.7865 157.692 59.4586 159.221C60.681 162.021 62.478 166.283 62.8676 167.987C62.8968 168.126 62.9359 168.263 62.9845 168.396C63.8464 170.856 67.1288 173.091 67.1288 173.091L58.3093 183.396L55.7039 181.574C55.3703 181.821 55.0187 182.043 54.6519 182.237C52.9377 183.167 49.3437 184.535 45.399 182.446C43.6896 181.485 42.2053 180.17 41.0453 178.589C34.1299 169.609 31.1203 162.26 32.0992 153.655C33.078 145.05 71.804 118.494 79.4888 118.771L90.9186 121.294C91.1669 121.089 91.8341 120.563 92.3503 120.588C94.4298 120.695 94.4834 123.11 94.4834 123.11L120.099 127.269C120.099 127.269 122.754 125.94 123.216 125.959C123.551 125.982 123.874 126.088 124.158 126.267C124.441 126.447 124.675 126.694 124.838 126.987C124.838 126.987 131.471 123.013 133.604 123.938C140.626 126.967 175.573 143.949 170.387 151.829Z" fill="#D3EEFE"/>
<path opacity="0.2" d="M81.393 193.915C78.4821 197.115 74.5736 199.234 70.3041 199.929C68.9551 200.143 67.7717 200.358 66.7344 200.572C67.1029 199.901 67.5839 199.298 68.1564 198.79C68.1564 198.79 67.9519 195.751 67.8496 192.658C70.8544 194.64 76.0944 196.929 81.393 193.915Z" fill="black"/>
<path opacity="0.2" d="M69.8949 179.578L70.231 178.501L68.4291 161.632C71.1222 165.494 80.7257 178.647 87.344 180.069C94.2642 181.55 75.7632 184.175 69.8949 179.578Z" fill="black"/>
<path opacity="0.2" d="M122.096 200.411C114.864 199.588 104.642 197.767 103.619 193.983C102.027 188.071 109.775 184.526 120.815 181.94C119.534 182.967 118.38 183.561 117.499 183.401L122.096 200.411Z" fill="black"/>
<path opacity="0.2" d="M167.104 155.369C156.459 164.184 131.914 168.518 131.914 168.518C131.914 168.518 131.091 169.75 129.825 171.503C126.214 162.881 125.662 153.283 128.262 144.304C128.262 144.304 130.151 154.531 138.001 156.966C138.001 156.966 131.992 152.491 134.105 141.719C134.105 141.719 136.156 154.38 149.495 157.897C155.967 159.635 162.303 157.746 167.104 155.369Z" fill="black"/>
<path opacity="0.2" d="M67.8837 156.518L67.5915 153.791L58.2801 156.635C58.2801 156.635 58.7671 157.726 59.4392 159.255C55.8793 158.89 49.1246 162.177 47.9461 158.593C46.5241 154.249 55.251 155.744 55.251 155.744L63.5007 150.947C61.9424 144.275 65.9114 139.259 65.9114 139.259L66.6662 143.915C67.0266 135.066 70.4891 130.225 70.4891 130.225C67.6256 137.224 67.7035 154.468 67.8837 156.518Z" fill="black"/>
<path opacity="0.2" d="M67.1239 173.105L58.3044 183.41L55.699 181.589C55.3655 181.836 55.0138 182.057 54.6471 182.251C52.9329 183.181 49.3388 184.55 45.3942 182.461C48.2528 178.506 54.1601 172.687 61.1777 170.442C59.455 173.005 57.903 175.68 56.5318 178.448L58.3434 180.23C58.3434 180.23 62.8627 175.078 67.1239 173.105Z" fill="black"/>
<path opacity="0.2" d="M88.5372 127.717C88.5372 128.628 87.9625 138.918 95.4623 141.66C102.962 144.402 109.614 139.766 109.614 139.766C109.614 139.766 98.1164 150.859 91.1085 144.928C84.1007 138.996 88.5372 127.717 88.5372 127.717Z" fill="black"/>
<path d="M66.788 206.465C66.788 206.465 66.3838 201.741 66.6857 200.738C66.9389 199.89 68.1467 198.79 68.1467 198.79C68.1467 198.79 67.5087 189.215 67.9178 186.746C68.2684 184.628 70.2262 178.467 70.2262 178.467L67.5866 153.757L58.2753 156.606C58.2753 156.606 62.2394 165.372 62.853 167.972C63.4667 170.573 67.1191 173.071 67.1191 173.071L58.2996 183.371L55.6942 181.555C55.6942 181.555 47.9997 187.574 41.0502 178.574C34.1008 169.575 31.1155 162.245 32.0895 153.616C33.0635 144.986 71.804 118.46 79.4888 118.732L90.9186 121.26C91.1621 121.055 91.8342 120.529 92.3455 120.554C94.425 120.661 94.4786 123.076 94.4786 123.076L120.095 127.235C120.095 127.235 122.754 125.906 123.216 125.925C123.55 125.949 123.873 126.055 124.155 126.234C124.437 126.414 124.67 126.661 124.833 126.953C124.833 126.953 131.466 122.984 133.599 123.904C140.612 126.933 175.554 143.915 170.372 151.794C163.014 162.995 131.899 168.503 131.899 168.503C131.899 168.503 121.551 184.087 117.475 183.366L124.142 207.76" stroke="#263238" stroke-linecap="round" stroke-linejoin="round"/>
<path d="M143.315 153.538C155.071 161.301 164.548 159.869 171.965 149.876C171.965 149.876 178.14 141.913 177.701 133.318C177.263 124.722 175.213 96.7201 148.452 103.879C144.045 105.057 133.765 118.825 132.903 122.609C132.503 124.338 128.378 133.138 124.37 142.249" fill="#D3EEFE"/>
<path d="M143.315 153.538C155.071 161.301 164.548 159.869 171.965 149.876C171.965 149.876 178.14 141.913 177.701 133.318C177.263 124.722 175.213 96.7201 148.452 103.879C144.045 105.057 133.765 118.825 132.903 122.609C132.503 124.338 128.378 133.138 124.37 142.249" stroke="#263238" stroke-linecap="round" stroke-linejoin="round"/>
<path d="M111.509 71.2696C111.509 71.2696 118.999 70.1349 124.2 74.7906C130.779 80.6784 138.167 96.5545 127.648 122.862C127.648 122.862 112.108 112.547 85.586 119.453C85.586 119.453 87.87 113.283 83.862 93.8565C82.0504 85.0662 86.6087 64.8169 111.509 71.2696Z" fill="#263238"/>
<path d="M100.157 137.287C111.241 139.084 123.017 126.812 123.017 126.812C123.017 126.812 116.992 126.071 116.452 123.242C114.723 114.315 121.677 103.275 121.677 103.275C121.677 103.275 94.7659 104.02 99.4703 110.093C100.346 111.204 101.062 112.432 101.598 113.741C103.23 117.749 102.085 120.773 101.233 121.533C101.171 121.583 101.104 121.627 101.034 121.664C99.407 122.404 92.7205 121.299 92.7205 121.299C92.7205 121.299 90.042 135.646 100.157 137.287Z" fill="white" stroke="#263238" stroke-linecap="round" stroke-linejoin="round"/>
<path d="M119.203 130.211C119.203 130.211 114.09 132.256 106.605 131.647L103.235 133.298" stroke="#263238" stroke-linecap="round" stroke-linejoin="round"/>
<path d="M99.8744 133.04L99.6309 130.829C99.6309 130.829 94.1084 129.1 92.399 125.818" stroke="#263238" stroke-linecap="round" stroke-linejoin="round"/>
<path d="M101.233 121.547C109.473 123.7 113.345 113.132 113.345 113.132C113.345 113.132 106.751 111.184 101.598 113.775C103.23 117.783 102.1 120.807 101.233 121.547Z" fill="#263238"/>
<path d="M122.155 97.7282C124.156 86.4737 121.931 72.9693 104.798 74.0894C92.5598 74.888 92.6621 88.3048 93.4705 92.3128C94.8341 99.0479 92.8812 101.697 94.9802 107.356C96.4899 111.422 99.9914 115.971 104.116 117.676C106.653 118.723 116.924 111.515 117.684 108.218" fill="white"/>
<path d="M122.155 97.7282C124.156 86.4737 121.931 72.9693 104.798 74.0894C92.5598 74.888 92.6621 88.3048 93.4705 92.3128C94.8341 99.0479 92.8812 101.697 94.9802 107.356C96.4899 111.422 99.9914 115.971 104.116 117.676C106.653 118.723 116.924 111.515 117.684 108.218" stroke="#263238" stroke-linecap="round" stroke-linejoin="round"/>
<path d="M100.629 94.4117C100.527 95.6779 100.376 98.7947 97.7073 101.113C95.9736 102.608 99.9475 104.137 99.9475 104.137" stroke="#263238" stroke-linecap="round" stroke-linejoin="round"/>
<path d="M97.7852 89.946C97.7852 89.946 94.0061 88.1051 91.4542 91.144" stroke="#263238" stroke-linecap="round" stroke-linejoin="round"/>
<path d="M104.126 89.6976C106.783 88.9271 109.618 89.0399 112.205 90.019" stroke="#263238" stroke-linecap="round" stroke-linejoin="round"/>
<path d="M108.051 95.0204C108.168 96.1064 108.899 96.9197 109.683 96.8321C110.467 96.7444 111.007 95.7996 110.89 94.7136C110.773 93.6276 110.043 92.8192 109.259 92.902C108.475 92.9848 107.934 93.9344 108.051 95.0204Z" fill="#263238"/>
<path d="M100.133 107.716C103.137 107.302 106.018 106.249 108.582 104.629C108.582 104.629 108.937 109.353 104.983 110.332C101.949 111.086 100.775 107.624 100.775 107.624" stroke="#263238" stroke-linecap="round" stroke-linejoin="round"/>
<path d="M111.246 78.3749C111.246 78.3749 110.165 91.7137 121.935 96.5594L127.453 83.7367L119.106 74.4838L106.537 70.8508C87.7532 72.0245 79.669 83.6929 90.0956 114.788C90.0956 114.802 87.1785 77.771 111.246 78.3749Z" fill="#263238"/>
<path d="M119.354 97.1243C119.189 95.6243 122.982 91.8063 124.263 94.2559C126.45 98.4343 124.857 102.048 122.598 103.509C121.585 104.147 120.299 105.345 119.398 104.215" fill="white"/>
<path d="M119.354 97.1243C119.189 95.6243 122.982 91.8063 124.263 94.2559C126.45 98.4343 124.857 102.048 122.598 103.509C121.585 104.147 120.299 105.345 119.398 104.215" stroke="#263238" stroke-linecap="round" stroke-linejoin="round"/>
<path d="M96.5873 95.5415C96.7091 96.6275 97.4396 97.4408 98.2236 97.3532C99.0077 97.2655 99.5483 96.3207 99.4314 95.2347C99.3145 94.1487 98.5791 93.3354 97.7951 93.4231C97.011 93.5108 96.4656 94.4312 96.5873 95.5415Z" fill="#263238"/>
<g opacity="0.2">
<path opacity="0.2" d="M88.4301 93.3306C88.2889 94.2315 88.1915 95.147 88.1379 96.0577" stroke="white" stroke-linecap="round" stroke-linejoin="round"/>
<path opacity="0.2" d="M109.298 75.9497C99.7821 75.7013 90.9382 81.7644 88.8441 91.2852" stroke="white" stroke-linecap="round" stroke-linejoin="round"/>
<path opacity="0.2" d="M107.598 73.2322C107.598 73.2322 93.8746 70.0034 88.7319 79.1054" stroke="white" stroke-linecap="round" stroke-linejoin="round"/>
<path opacity="0.2" d="M118.731 89.0888C119.559 90.2668 120.555 91.3169 121.687 92.2056" stroke="white" stroke-linecap="round" stroke-linejoin="round"/>
<path opacity="0.2" d="M113.286 75.0098C113.988 79.369 115.462 83.568 117.64 87.4087" stroke="white" stroke-linecap="round" stroke-linejoin="round"/>
<path opacity="0.2" d="M127.073 116.288C126.83 117.378 126.542 118.46 126.221 119.531" stroke="white" stroke-linecap="round" stroke-linejoin="round"/>
<path opacity="0.2" d="M126.279 98.1518C128.505 103.095 128.354 109.246 127.438 114.447" stroke="white" stroke-linecap="round" stroke-linejoin="round"/>
<path opacity="0.2" d="M124.648 106.742C124.757 108.615 124.468 110.489 123.8 112.241C123.133 113.994 122.103 115.585 120.776 116.911" stroke="white" stroke-linecap="round" stroke-linejoin="round"/>
<path opacity="0.2" d="M118.322 76.6022C120.655 79.758 122.388 83.1426 125.091 86.0256C127.94 89.0596 130.789 92.5368 131.325 96.8126" stroke="white" stroke-linecap="round" stroke-linejoin="round"/>
<path opacity="0.2" d="M115.03 73.3199C115.698 73.7579 116.313 74.2728 116.861 74.8539" stroke="white" stroke-linecap="round" stroke-linejoin="round"/>
</g>
<path d="M161.971 146.554C161.699 146.613 161.426 146.662 161.144 146.7C153.78 147.752 145.521 141.645 142.735 134.316C140.534 128.526 142.458 121.956 143.509 119.146C143.841 118.265 144.079 117.753 144.079 117.753C148.521 111.422 174.341 123.817 174.643 130.654C174.945 137.491 169.515 144.899 161.971 146.554Z" fill="#263238" stroke="#263238" stroke-linecap="round" stroke-linejoin="round"/>
<path d="M170.051 131.579C170.051 131.579 168.59 142.449 161.144 146.701C153.78 147.752 145.521 141.645 142.735 134.316C140.534 128.526 142.458 121.956 143.509 119.146C152.212 114.174 170.051 131.579 170.051 131.579Z" fill="white"/>
<path opacity="0.4" d="M170.051 131.579C170.051 131.579 168.59 142.449 161.144 146.701C153.78 147.752 145.521 141.645 142.735 134.316C140.534 128.526 142.458 121.956 143.509 119.146C152.212 114.174 170.051 131.579 170.051 131.579Z" fill="#D3EEFE"/>
<path d="M170.051 131.579C170.051 131.579 168.59 142.449 161.144 146.701C153.78 147.752 145.521 141.645 142.735 134.316C140.534 128.526 142.458 121.956 143.509 119.146C152.212 114.174 170.051 131.579 170.051 131.579Z" stroke="#263238" stroke-linecap="round" stroke-linejoin="round"/>
<path d="M139.599 137.301C139.599 137.301 147.985 149.34 157.778 150.343C167.572 151.346 173.849 143.097 174.234 136.878" stroke="#263238" stroke-linecap="round" stroke-linejoin="round"/>
<path d="M134.885 82.977C135.62 80.917 140.909 81.6086 142.589 88.0369C144.269 94.4653 150.868 110.093 150.868 110.093C150.868 110.093 177.166 71.4206 181.86 69.9304C186.555 68.4402 184.709 75.1413 178.412 84.438C178.412 84.438 184.31 83.4007 185.859 84.438C187.407 85.4753 186.652 91.743 187.475 93.915C188.858 97.582 185.785 98.3564 185.785 98.3564C187.293 98.3901 188.743 98.9422 189.891 99.9196C191.581 101.502 190.733 108.043 191.215 109.893C191.698 111.744 188.474 113.302 188.474 113.302C188.474 113.302 196.222 117.525 194.473 118.586C191.522 120.369 189.842 118.542 189.842 118.542C189.842 118.542 177.935 133.493 168.955 136.824C159.975 140.155 142.496 126.919 140.617 119.711C138.737 112.504 140.982 112.947 139.555 100.952C138.128 88.9573 134.885 82.977 134.885 82.977Z" fill="white" stroke="#263238" stroke-linecap="round" stroke-linejoin="round"/>
<path d="M173.225 59.2155L138.598 68.2417C137.369 68.5619 136.633 69.8174 136.953 71.0458L153.321 133.84C153.642 135.068 154.897 135.804 156.125 135.484L190.753 126.458C191.981 126.138 192.718 124.882 192.397 123.654L176.029 60.86C175.709 59.6316 174.453 58.8953 173.225 59.2155Z" fill="white" stroke="#263238" stroke-linecap="round" stroke-linejoin="round"/>
<path d="M153.386 66.4338C153.404 66.5051 153.408 66.5793 153.398 66.6523C153.388 66.7253 153.364 66.7955 153.326 66.8591C153.289 66.9226 153.24 66.9782 153.181 67.0226C153.122 67.067 153.055 67.0994 152.984 67.118C152.913 67.1365 152.838 67.1409 152.765 67.1307C152.692 67.1205 152.622 67.0961 152.559 67.0588C152.495 67.0215 152.439 66.972 152.395 66.9133C152.351 66.8545 152.318 66.7875 152.3 66.7162C152.28 66.6449 152.275 66.5703 152.284 66.4969C152.293 66.4235 152.317 66.3528 152.355 66.2888C152.392 66.2248 152.441 66.1689 152.501 66.1244C152.56 66.0799 152.627 66.0476 152.699 66.0296C152.844 65.9925 152.997 66.0142 153.126 66.09C153.254 66.1657 153.348 66.2893 153.386 66.4338Z" fill="#D3EEFE" stroke="#263238" stroke-linecap="round" stroke-linejoin="round"/>
<path d="M160.52 64.5734C160.532 64.6182 160.535 64.6649 160.528 64.7107C160.522 64.7565 160.506 64.8006 160.483 64.8404C160.459 64.8803 160.428 64.9151 160.391 64.9428C160.354 64.9705 160.312 64.9906 160.267 65.002C160.2 65.019 160.129 65.0157 160.064 64.9926C159.999 64.9695 159.942 64.9276 159.9 64.8722C159.859 64.8167 159.835 64.7503 159.831 64.6811C159.827 64.612 159.844 64.5433 159.879 64.4837C159.914 64.4241 159.966 64.3762 160.029 64.3462C160.091 64.3161 160.161 64.3052 160.23 64.3148C160.298 64.3244 160.362 64.3541 160.414 64.4001C160.466 64.4461 160.503 64.5065 160.52 64.5734Z" fill="#D3EEFE" stroke="#263238" stroke-linecap="round" stroke-linejoin="round"/>
<path d="M158.815 65.4518L154.635 66.5293C154.551 66.5508 154.501 66.6359 154.522 66.7194L154.544 66.8044C154.566 66.8879 154.651 66.9381 154.735 66.9166L158.915 65.8391C158.999 65.8176 159.049 65.7325 159.027 65.649L159.005 65.564C158.984 65.4805 158.899 65.4303 158.815 65.4518Z" fill="#D3EEFE" stroke="#263238" stroke-width="1.0017" stroke-linecap="round" stroke-linejoin="round"/>
<path d="M174.989 61.5102L191.22 123.787C191.311 124.137 191.259 124.508 191.077 124.819C190.894 125.13 190.595 125.356 190.246 125.448L156.064 134.355C155.715 134.446 155.344 134.394 155.033 134.211C154.721 134.029 154.495 133.73 154.404 133.381L138.172 71.1041C138.082 70.7547 138.133 70.3838 138.316 70.0725C138.498 69.7612 138.797 69.535 139.146 69.4434L146.164 67.6123C146.389 67.5532 146.626 67.5645 146.845 67.6446C147.064 67.7247 147.252 67.8698 147.386 68.0603L147.897 68.786C148.031 68.9765 148.22 69.1216 148.438 69.2017C148.657 69.2818 148.894 69.2931 149.12 69.234L164.523 65.2211C164.746 65.1629 164.946 65.0388 165.097 64.865C165.249 64.6913 165.344 64.4759 165.371 64.2472L165.463 63.3657C165.489 63.1365 165.583 62.9204 165.735 62.7464C165.886 62.5724 166.087 62.4487 166.311 62.3917L173.328 60.5606C173.674 60.4693 174.042 60.5177 174.353 60.6953C174.664 60.873 174.892 61.1657 174.989 61.5102Z" fill="#D3EEFE" stroke="#263238" stroke-linecap="round" stroke-linejoin="round"/>
<path d="M176.179 96.457C179.355 89.1421 176 80.6375 168.685 77.4614C161.37 74.2854 152.866 77.6406 149.69 84.9555C146.514 92.2704 149.869 100.775 157.184 103.951C164.499 107.127 173.003 103.772 176.179 96.457Z" fill="white" stroke="#263238" stroke-linecap="round" stroke-linejoin="round"/>
<path d="M156.97 98.9992C157.093 99.2895 157.32 99.5238 157.606 99.657C157.892 99.7901 158.217 99.8125 158.519 99.7199L163.267 98.3515C163.277 98.4537 163.297 98.5547 163.325 98.6534C163.397 98.9016 163.517 99.1331 163.679 99.3348C163.84 99.5365 164.04 99.7045 164.266 99.8291C164.492 99.9536 164.741 100.032 164.998 100.061C165.255 100.089 165.514 100.067 165.763 99.9951C166.011 99.9232 166.242 99.803 166.444 99.6416C166.646 99.4802 166.814 99.2806 166.938 99.0543C167.063 98.8279 167.142 98.5793 167.17 98.3225C167.199 98.0657 167.176 97.8058 167.104 97.5577C167.074 97.4592 167.037 97.3632 166.992 97.2704L171.736 95.9019C172.045 95.819 172.313 95.623 172.485 95.3524C172.657 95.0819 172.722 94.7567 172.666 94.4409C172.636 94.2692 172.57 94.1058 172.472 93.9613C172.375 93.8169 172.248 93.6946 172.1 93.6027C171.952 93.5107 171.786 93.4511 171.613 93.4277C171.441 93.4043 171.265 93.4177 171.098 93.4669L170.698 93.2234C169.833 92.7058 169.196 91.8791 168.916 90.9102L168.015 87.7885C167.644 86.503 166.82 85.3952 165.696 84.67C164.571 83.9449 163.222 83.6514 161.898 83.8439C162.126 83.604 162.268 83.296 162.303 82.9674C162.337 82.6388 162.263 82.3079 162.091 82.0257C161.919 81.7435 161.659 81.5257 161.351 81.406C161.043 81.2863 160.704 81.2713 160.387 81.3634C160.07 81.4554 159.791 81.6494 159.595 81.9153C159.399 82.1812 159.296 82.5043 159.302 82.8347C159.307 83.1651 159.422 83.4844 159.627 83.7434C159.832 84.0024 160.117 84.1866 160.437 84.2676C159.202 84.8069 158.206 85.7781 157.636 86.9991C157.066 88.2202 156.961 89.6073 157.34 90.9004L158.251 94.0562C158.413 94.6075 158.453 95.1873 158.369 95.7557C158.285 96.3241 158.078 96.8675 157.764 97.3483C157.599 97.3981 157.446 97.4816 157.315 97.5937C157.184 97.7057 157.078 97.8437 157.003 97.999C156.929 98.1543 156.887 98.3234 156.881 98.4956C156.876 98.6678 156.906 98.8393 156.97 98.9992ZM161.65 82.6069C161.698 82.7734 161.696 82.9505 161.643 83.1157C161.59 83.2809 161.49 83.4267 161.355 83.5349C161.219 83.6431 161.055 83.7086 160.882 83.7233C160.709 83.738 160.536 83.7012 160.384 83.6175C160.233 83.5338 160.109 83.4069 160.029 83.253C159.95 83.0991 159.917 82.925 159.937 82.7527C159.956 82.5804 160.026 82.4177 160.137 82.2851C160.249 82.1526 160.397 82.0561 160.564 82.0079C160.675 81.9752 160.791 81.9648 160.905 81.9772C161.02 81.9897 161.131 82.0248 161.232 82.0805C161.333 82.1363 161.422 82.2115 161.494 82.3018C161.565 82.3922 161.619 82.4959 161.65 82.6069Z" fill="#D3EEFE" stroke="#263238" stroke-linecap="round" stroke-linejoin="round"/>
<path d="M166.13 97.3483L164.036 97.957" stroke="#263238" stroke-linecap="round" stroke-linejoin="round"/>
<path d="M169.228 93.9977L159.629 96.7736" stroke="#263238" stroke-linecap="round" stroke-linejoin="round"/>
<path d="M179.255 113.395L159.775 118.469C159.218 118.616 158.637 118.652 158.067 118.574C157.496 118.496 156.946 118.307 156.448 118.017C155.951 117.726 155.515 117.341 155.167 116.882C154.819 116.423 154.564 115.9 154.418 115.343C154.271 114.785 154.236 114.205 154.314 113.634C154.392 113.062 154.582 112.512 154.873 112.015C155.163 111.517 155.55 111.082 156.009 110.734C156.468 110.386 156.992 110.131 157.549 109.986L177.029 104.911C178.151 104.622 179.341 104.789 180.341 105.374C181.34 105.96 182.067 106.918 182.362 108.038C182.659 109.16 182.499 110.355 181.916 111.359C181.334 112.363 180.377 113.096 179.255 113.395Z" fill="#263238"/>
<path d="M157.627 112.387C157.694 112.272 157.785 112.174 157.894 112.097C158.002 112.021 158.125 111.968 158.256 111.944C158.381 111.901 158.515 111.887 158.647 111.901C158.779 111.915 158.906 111.958 159.02 112.026C159.244 112.193 159.397 112.438 159.449 112.713L159.483 112.84L158.884 112.995L158.84 112.83C158.822 112.721 158.767 112.621 158.684 112.547C158.645 112.523 158.602 112.508 158.556 112.502C158.51 112.497 158.464 112.503 158.421 112.518C158.376 112.526 158.334 112.544 158.298 112.571C158.261 112.598 158.232 112.633 158.212 112.674C158.175 112.778 158.175 112.891 158.212 112.995C158.251 113.155 158.339 113.299 158.465 113.405C158.625 113.531 158.798 113.64 158.981 113.731C159.139 113.811 159.292 113.9 159.439 113.999C159.567 114.088 159.681 114.196 159.775 114.32C159.883 114.466 159.963 114.631 160.009 114.807C160.097 115.075 160.079 115.365 159.96 115.62C159.809 115.839 159.584 115.996 159.327 116.063C159.069 116.13 158.796 116.103 158.558 115.986C158.327 115.823 158.17 115.576 158.119 115.299L158.056 115.051L158.655 114.895L158.728 115.182C158.796 115.445 158.937 115.547 159.157 115.489C159.376 115.43 159.454 115.275 159.385 115.002C159.345 114.843 159.257 114.7 159.132 114.593C158.973 114.466 158.8 114.358 158.616 114.271C158.459 114.188 158.306 114.097 158.158 113.999C158.03 113.91 157.917 113.801 157.822 113.677C157.713 113.532 157.633 113.366 157.588 113.19C157.503 112.927 157.517 112.641 157.627 112.387Z" fill="white"/>
<path d="M160.978 114.603C161.046 114.861 161.192 114.963 161.411 114.909C161.63 114.856 161.704 114.69 161.635 114.422L160.827 111.315L161.426 111.16L162.225 114.223C162.312 114.49 162.295 114.781 162.176 115.036C162.109 115.152 162.017 115.251 161.908 115.329C161.799 115.406 161.674 115.459 161.543 115.484C161.416 115.524 161.282 115.538 161.15 115.525C161.018 115.511 160.889 115.471 160.773 115.406C160.547 115.238 160.391 114.991 160.335 114.715L159.536 111.651L160.169 111.486L160.978 114.603Z" fill="white"/>
<path d="M163.583 110.848C163.691 110.922 163.783 111.017 163.853 111.128C163.924 111.238 163.971 111.362 163.992 111.491L164.027 111.632C164.08 111.807 164.092 111.992 164.061 112.172C164.03 112.321 163.949 112.455 163.832 112.552C164.178 112.591 164.411 112.84 164.528 113.288L164.611 113.619C164.655 113.745 164.672 113.879 164.662 114.012C164.652 114.145 164.615 114.275 164.553 114.393C164.479 114.506 164.383 114.602 164.271 114.676C164.159 114.749 164.032 114.799 163.9 114.822L162.926 115.085L161.874 111.057L162.848 110.804C163.09 110.726 163.352 110.742 163.583 110.848ZM162.916 112.528L163.165 112.465C163.217 112.456 163.267 112.436 163.312 112.407C163.356 112.377 163.394 112.339 163.423 112.294C163.467 112.18 163.467 112.053 163.423 111.939L163.364 111.715C163.345 111.602 163.288 111.499 163.204 111.422C163.165 111.396 163.12 111.379 163.074 111.373C163.027 111.367 162.98 111.372 162.936 111.388L162.629 111.466L162.916 112.528ZM163.403 114.344L163.764 114.247C163.81 114.24 163.854 114.223 163.892 114.197C163.931 114.171 163.964 114.136 163.988 114.096C164.026 113.989 164.026 113.872 163.988 113.765L163.895 113.414C163.872 113.277 163.804 113.152 163.7 113.059C163.649 113.03 163.592 113.012 163.533 113.007C163.474 113.002 163.415 113.01 163.359 113.03L163.077 113.107L163.403 114.344Z" fill="white"/>
<path d="M164.402 110.638C164.467 110.523 164.558 110.423 164.666 110.347C164.775 110.27 164.899 110.218 165.03 110.195C165.155 110.152 165.289 110.137 165.421 110.15C165.553 110.164 165.68 110.206 165.794 110.273C166.02 110.441 166.175 110.688 166.228 110.965L166.262 111.091L165.663 111.247L165.619 111.077C165.602 110.967 165.544 110.869 165.458 110.799C165.421 110.774 165.378 110.758 165.333 110.752C165.288 110.746 165.243 110.75 165.2 110.765C165.155 110.773 165.112 110.791 165.075 110.818C165.038 110.845 165.007 110.88 164.986 110.921C164.95 111.025 164.95 111.138 164.986 111.242C165.023 111.402 165.11 111.545 165.234 111.651C165.397 111.777 165.572 111.886 165.755 111.978C165.94 112.075 166.091 112.168 166.213 112.245C166.339 112.337 166.452 112.445 166.549 112.567C166.657 112.712 166.735 112.878 166.778 113.054C166.87 113.32 166.854 113.612 166.734 113.867C166.666 113.982 166.575 114.082 166.466 114.159C166.357 114.236 166.232 114.29 166.101 114.315C165.974 114.356 165.839 114.37 165.706 114.357C165.573 114.344 165.444 114.303 165.327 114.237C165.1 114.07 164.946 113.823 164.893 113.546L164.825 113.302L165.424 113.142L165.502 113.434C165.57 113.692 165.712 113.794 165.931 113.736C166.15 113.677 166.223 113.521 166.155 113.249C166.116 113.091 166.029 112.95 165.906 112.844C165.746 112.716 165.571 112.607 165.385 112.518C165.23 112.435 165.078 112.344 164.932 112.245C164.802 112.159 164.688 112.051 164.596 111.924C164.483 111.781 164.403 111.615 164.363 111.437C164.277 111.175 164.291 110.891 164.402 110.638Z" fill="white"/>
<path d="M168.979 112.47C169.067 112.737 169.05 113.028 168.931 113.283C168.862 113.397 168.771 113.496 168.662 113.572C168.553 113.649 168.428 113.701 168.297 113.726C168.171 113.769 168.037 113.784 167.904 113.771C167.771 113.757 167.643 113.715 167.528 113.648C167.298 113.485 167.14 113.239 167.09 112.961L166.544 110.867C166.455 110.601 166.471 110.31 166.588 110.054C166.656 109.939 166.747 109.839 166.857 109.762C166.966 109.685 167.09 109.632 167.221 109.606C167.349 109.565 167.483 109.551 167.616 109.564C167.75 109.578 167.879 109.618 167.996 109.684C168.222 109.852 168.377 110.099 168.429 110.375L168.531 110.765L167.932 110.921L167.82 110.487C167.752 110.224 167.611 110.122 167.392 110.181C167.172 110.239 167.099 110.395 167.168 110.668L167.733 112.84C167.801 113.103 167.942 113.205 168.161 113.146C168.38 113.088 168.458 112.932 168.39 112.659L168.239 112.085L168.838 111.929L168.979 112.47Z" fill="white"/>
<path d="M170.844 112.815C170.807 112.715 170.776 112.613 170.752 112.508L170.586 111.875C170.563 111.735 170.492 111.606 170.387 111.51C170.335 111.479 170.276 111.459 170.216 111.452C170.155 111.445 170.094 111.452 170.036 111.471L169.822 111.53L170.245 113.171L169.612 113.336L168.565 109.309L169.539 109.056C169.661 109.001 169.793 108.976 169.926 108.982C170.059 108.989 170.188 109.027 170.304 109.094C170.419 109.161 170.516 109.254 170.589 109.366C170.661 109.478 170.705 109.605 170.718 109.737L170.801 110.059C170.863 110.215 170.878 110.386 170.842 110.55C170.807 110.714 170.723 110.864 170.601 110.979C170.758 110.999 170.902 111.079 171 111.203C171.117 111.36 171.2 111.539 171.244 111.729L171.405 112.353C171.434 112.465 171.463 112.557 171.487 112.625C171.515 112.695 171.553 112.761 171.599 112.82L170.956 112.991C170.911 112.938 170.874 112.879 170.844 112.815ZM169.671 110.955L169.914 110.892C169.968 110.881 170.018 110.861 170.063 110.83C170.109 110.8 170.147 110.762 170.177 110.716C170.221 110.604 170.221 110.479 170.177 110.366L170.07 109.966C170.054 109.854 169.999 109.75 169.914 109.674C169.875 109.647 169.829 109.63 169.782 109.624C169.735 109.618 169.686 109.624 169.642 109.64L169.34 109.718L169.671 110.955Z" fill="white"/>
<path d="M171.512 108.539L172.559 112.567L171.926 112.732L170.879 108.69L171.512 108.539Z" fill="white"/>
<path d="M173.698 108.203C173.805 108.278 173.895 108.372 173.965 108.482C174.034 108.591 174.081 108.714 174.102 108.841L174.141 108.988C174.193 109.161 174.204 109.344 174.176 109.523C174.142 109.671 174.062 109.805 173.947 109.903C174.292 109.947 174.521 110.19 174.643 110.643L174.726 110.974C174.769 111.1 174.786 111.233 174.776 111.365C174.766 111.498 174.729 111.626 174.667 111.744C174.595 111.857 174.499 111.955 174.387 112.029C174.274 112.104 174.148 112.154 174.015 112.177L173.041 112.435L171.95 108.418L172.924 108.169C173.176 108.078 173.455 108.09 173.698 108.203ZM173.031 109.884L173.279 109.82C173.384 109.799 173.477 109.738 173.538 109.65C173.582 109.536 173.582 109.409 173.538 109.294L173.479 109.07C173.458 108.957 173.402 108.853 173.318 108.773C173.278 108.747 173.233 108.731 173.186 108.725C173.139 108.719 173.091 108.724 173.046 108.739L172.744 108.822L173.031 109.884ZM173.518 111.695L173.878 111.603C173.925 111.594 173.969 111.576 174.007 111.549C174.046 111.522 174.078 111.487 174.102 111.447C174.143 111.342 174.143 111.226 174.102 111.121L174.015 110.77C173.992 110.631 173.923 110.505 173.82 110.41C173.768 110.382 173.711 110.365 173.652 110.361C173.593 110.357 173.534 110.365 173.479 110.385L173.197 110.458L173.518 111.695Z" fill="white"/>
<path d="M176.25 109.114L176.401 109.694L175.529 109.918L175.836 111.096L176.932 110.814L177.083 111.388L175.354 111.836L174.307 107.809L176.031 107.361L176.182 107.936L175.091 108.223L175.383 109.343L176.25 109.114Z" fill="white"/>
<path d="M177.424 106.996C177.551 106.954 177.685 106.939 177.819 106.952C177.952 106.964 178.081 107.004 178.198 107.069C178.423 107.23 178.577 107.473 178.627 107.746L179.157 109.786C179.249 110.049 179.234 110.338 179.114 110.59C179.044 110.703 178.952 110.801 178.842 110.876C178.732 110.95 178.607 111.001 178.476 111.023L177.472 111.286L176.421 107.259L177.424 106.996ZM177.955 110.546L178.31 110.453C178.356 110.444 178.399 110.426 178.436 110.399C178.474 110.372 178.506 110.338 178.529 110.298C178.566 110.193 178.566 110.08 178.529 109.976L177.984 107.882C177.962 107.773 177.903 107.675 177.818 107.604C177.779 107.582 177.737 107.568 177.692 107.563C177.648 107.558 177.603 107.562 177.56 107.575L177.2 107.668L177.955 110.546Z" fill="white"/>
<path d="M131.914 168.537C131.914 168.537 126.002 154.78 128.992 138.095" stroke="#263238" stroke-linecap="round" stroke-linejoin="round"/>
<path d="M117.489 183.401C117.489 183.401 105.538 187.053 104.34 189.805C103.142 192.556 109.697 190.238 109.697 190.238" stroke="#263238" stroke-linecap="round" stroke-linejoin="round"/>
<path d="M124.838 126.987C124.838 126.987 113.832 137.896 106.468 140.803" stroke="#263238" stroke-linecap="round" stroke-linejoin="round"/>
<path d="M88.7759 124.055C88.7759 124.055 86.7695 138.782 94.2546 141.563" stroke="#263238" stroke-linecap="round" stroke-linejoin="round"/>
<path d="M67.5915 153.791C67.5915 153.791 67.533 134.487 71.3657 128.516" stroke="#263238" stroke-linecap="round" stroke-linejoin="round"/>
<path d="M66.1597 134.121C66.1597 134.121 65.0835 146.111 67.5038 150.022" stroke="#263238" stroke-linecap="round" stroke-linejoin="round"/>
<path d="M58.2802 156.64C58.2802 156.64 49.9087 153.757 48.175 157.332C46.4413 160.906 53.1667 157.736 53.1667 157.736" stroke="#263238" stroke-linecap="round" stroke-linejoin="round"/>
<path d="M63.3157 169.156C63.3157 169.156 55.0952 173.787 54.6715 176.437" stroke="#263238" stroke-linecap="round" stroke-linejoin="round"/>
<path d="M76.7422 156.348C76.7422 156.348 92.477 180.128 101.16 177.946" stroke="#263238" stroke-linecap="round" stroke-linejoin="round"/>
<path d="M87.4902 189.702C87.4902 189.702 75.1546 198.746 73.3673 197.981" stroke="#263238" stroke-linecap="round" stroke-linejoin="round"/>
<path opacity="0.2" d="M173.898 151.113C174.731 150.431 175.281 149.978 175.461 149.837C175.276 149.997 174.74 150.465 173.898 151.113Z" fill="black"/>
</svg>
