<svg width="328" height="297" viewBox="0 0 328 297" fill="none" xmlns="http://www.w3.org/2000/svg">
<path d="M168.407 296.678C250.716 296.678 317.44 284.827 317.44 270.208C317.44 255.588 250.716 243.737 168.407 243.737C86.0987 243.737 19.3745 255.588 19.3745 270.208C19.3745 284.827 86.0987 296.678 168.407 296.678Z" fill="#D3EEFE"/>
<path opacity="0.5" d="M168.407 296.678C250.716 296.678 317.44 284.827 317.44 270.208C317.44 255.588 250.716 243.737 168.407 243.737C86.0987 243.737 19.3745 255.588 19.3745 270.208C19.3745 284.827 86.0987 296.678 168.407 296.678Z" fill="white"/>
<path d="M314.552 133.337C314.552 133.337 314.552 130.094 310.011 125.546C305.471 120.997 302.544 118.411 302.544 118.411C302.544 118.411 300.274 125.87 304.49 130.418C307.588 133.61 310.945 136.539 314.529 139.175L314.552 133.337Z" fill="#D3EEFE"/>
<path d="M307.957 153.599C307.957 153.599 307.957 150.356 303.417 145.816C298.876 141.275 295.958 138.673 295.958 138.673C295.958 138.673 293.641 146.14 297.903 150.68C301 153.874 304.357 156.803 307.942 159.437L307.957 153.599Z" fill="#D3EEFE"/>
<path d="M314.266 138.866C314.266 138.866 314.606 135.638 319.61 131.6C324.614 127.561 327.78 125.291 327.78 125.291C327.78 125.291 329.254 132.951 324.575 137.02C321.152 139.868 317.497 142.425 313.648 144.665L314.266 138.866Z" fill="#D3EEFE"/>
<path d="M306.305 162.796C306.305 162.796 306.984 159.622 312.374 156.132C317.764 152.642 321.17 150.727 321.17 150.727C321.17 150.727 321.826 158.503 316.753 162.062C313.046 164.534 309.141 166.693 305.077 168.518L306.305 162.796Z" fill="#D3EEFE"/>
<path d="M307.803 188.888C307.803 188.888 307.803 185.637 312.343 181.097C316.884 176.556 319.803 173.962 319.803 173.962C319.803 173.962 322.073 181.421 317.857 185.962C314.762 189.159 311.404 192.091 307.818 194.726L307.803 188.888Z" fill="#D3EEFE"/>
<path d="M307.726 195.251C307.726 195.251 308.181 192.039 304.336 186.896C300.49 181.753 297.965 178.773 297.965 178.773C297.965 178.773 294.653 185.838 298.181 190.935C300.798 194.539 303.711 197.917 306.892 201.035L307.726 195.251Z" fill="#D3EEFE"/>
<path d="M303.247 214.162C303.247 214.162 303.247 210.919 307.788 206.378C312.328 201.838 315.247 199.243 315.247 199.243C315.247 199.243 317.525 206.703 313.301 211.243C310.206 214.441 306.848 217.372 303.263 220.008L303.247 214.162Z" fill="#D3EEFE"/>
<path d="M306.259 231.243C306.259 231.243 305.432 228.1 308.676 222.556C311.919 217.012 314.081 213.761 314.081 213.761C314.081 213.761 318.166 220.401 315.239 225.869C313.045 229.744 310.531 233.429 307.726 236.888L306.259 231.243Z" fill="#D3EEFE"/>
<path d="M314.961 132.503C314.734 135.883 314.319 139.247 313.718 142.58C311.926 151.846 307.432 157.839 305.641 166.225C303.849 174.611 309 185.398 307.618 196.162C306.235 206.927 302.05 212.911 303.247 220.1C304.444 227.289 310.869 247.436 310.869 247.436" stroke="#263238" stroke-width="0.75" stroke-linecap="round" stroke-linejoin="round"/>
<path d="M314.22 141.02L319.116 137.26" stroke="#263238" stroke-width="0.75" stroke-linecap="round" stroke-linejoin="round"/>
<path d="M314.451 136.696L312.397 133.051" stroke="#263238" stroke-width="0.75" stroke-linecap="round" stroke-linejoin="round"/>
<path d="M305.911 165.838C305.911 165.838 310.011 162.75 314.22 159.661" stroke="#263238" stroke-width="0.75" stroke-linecap="round" stroke-linejoin="round"/>
<path d="M307.741 158.866C305.744 155.118 303.377 151.579 300.676 148.302" stroke="#263238" stroke-width="0.75" stroke-linecap="round" stroke-linejoin="round"/>
<path d="M307.957 193.498C310.298 189.186 313.253 185.238 316.729 181.776" stroke="#263238" stroke-width="0.75" stroke-linecap="round" stroke-linejoin="round"/>
<path d="M307.162 198.054C305.92 195.127 304.434 192.309 302.722 189.63C300.336 186.101 299.988 185.645 299.988 185.645" stroke="#263238" stroke-width="0.75" stroke-linecap="round" stroke-linejoin="round"/>
<path d="M303.247 220.093C304.283 217.512 305.517 215.016 306.938 212.626C308.357 210.41 309.956 208.316 311.718 206.363" stroke="#263238" stroke-width="0.75" stroke-linecap="round" stroke-linejoin="round"/>
<path d="M307.757 236.888C307.52 234.427 307.944 231.948 308.984 229.706C310.691 226.401 312.629 222.077 313.425 220.371" stroke="#263238" stroke-width="0.75" stroke-linecap="round" stroke-linejoin="round"/>
<path d="M284.807 176.68C284.807 176.68 284.452 174.649 286.807 171.275C289.162 167.9 290.714 165.985 290.714 165.985C290.714 165.985 292.946 170.425 290.799 173.707C289.199 176.047 287.406 178.251 285.44 180.294L284.807 176.68Z" fill="#D3EEFE"/>
<path d="M291.139 188.68C291.139 188.68 290.792 186.649 293.147 183.274C295.502 179.9 297.046 177.985 297.046 177.985C297.046 177.985 299.286 182.417 297.131 185.707C295.532 188.046 293.739 190.246 291.772 192.286L291.139 188.68Z" fill="#D3EEFE"/>
<path d="M285.587 180.116C285.587 180.116 285.023 178.132 281.448 176.139C277.873 174.147 275.633 173.051 275.633 173.051C275.633 173.051 275.549 178.016 278.923 180.054C281.378 181.472 283.949 182.681 286.606 183.668L285.587 180.116Z" fill="#D3EEFE"/>
<path d="M293.178 194.255C293.178 194.255 292.406 192.34 288.645 190.742C284.884 189.143 282.545 188.302 282.545 188.302C282.545 188.302 282.977 193.244 286.545 194.927C289.137 196.075 291.821 197.005 294.568 197.707L293.178 194.255Z" fill="#D3EEFE"/>
<path d="M295.07 210.78C295.07 210.78 294.722 208.749 291.378 206.394C288.035 204.039 285.919 202.726 285.919 202.726C285.919 202.726 285.309 207.653 288.444 210.046C290.739 211.711 293.166 213.183 295.703 214.448L295.07 210.78Z" fill="#D3EEFE"/>
<path d="M295.811 214.764C295.811 214.764 295.17 212.803 297.031 209.158C298.892 205.514 300.12 203.375 300.12 203.375C300.12 203.375 302.961 207.444 301.301 211.019C300.053 213.564 298.593 216 296.938 218.301L295.811 214.764Z" fill="#D3EEFE"/>
<path d="M301.51 231.15C301.51 231.15 301.749 229.096 304.946 226.517C308.143 223.938 310.181 222.548 310.181 222.548C310.181 222.548 311.077 227.428 308.081 229.992C305.889 231.79 303.548 233.399 301.085 234.803L301.51 231.15Z" fill="#D3EEFE"/>
<path d="M300.668 226.116C300.668 226.116 300.313 224.085 296.977 221.73C293.641 219.374 291.517 218.062 291.517 218.062C291.517 218.062 290.907 222.988 294.043 225.374C296.334 227.044 298.763 228.519 301.301 229.784L300.668 226.116Z" fill="#D3EEFE"/>
<path d="M300.622 237.181C300.622 237.181 300.799 235.119 298.158 231.992C295.517 228.865 293.811 227.065 293.811 227.065C293.811 227.065 291.973 231.699 294.405 234.787C296.2 236.981 298.176 239.019 300.313 240.88L300.622 237.181Z" fill="#D3EEFE"/>
<path d="M284.46 176.209C284.972 178.3 285.596 180.362 286.328 182.387C288.467 188.008 291.927 191.274 293.965 196.34C296.004 201.406 293.965 208.695 295.973 215.328C297.981 221.961 301.286 225.22 301.317 229.853C301.347 234.486 299.517 247.366 299.517 247.366" stroke="#263238" stroke-width="0.75" stroke-linecap="round" stroke-linejoin="round"/>
<path d="M285.85 181.468L282.367 179.637" stroke="#263238" stroke-width="0.75" stroke-linecap="round" stroke-linejoin="round"/>
<path d="M285.232 178.773L286.128 176.271" stroke="#263238" stroke-width="0.75" stroke-linecap="round" stroke-linejoin="round"/>
<path d="M293.757 196.124C293.757 196.124 290.846 194.641 287.873 193.174" stroke="#263238" stroke-width="0.75" stroke-linecap="round" stroke-linejoin="round"/>
<path d="M291.749 191.699C292.675 189.231 293.807 186.844 295.131 184.564" stroke="#263238" stroke-width="0.75" stroke-linecap="round" stroke-linejoin="round"/>
<path d="M295.448 213.691C293.51 211.242 291.23 209.086 288.676 207.29" stroke="#263238" stroke-width="0.75" stroke-linecap="round" stroke-linejoin="round"/>
<path d="M296.467 216.479C296.928 214.507 297.553 212.578 298.336 210.71C299.448 208.239 299.618 207.923 299.618 207.923" stroke="#263238" stroke-width="0.75" stroke-linecap="round" stroke-linejoin="round"/>
<path d="M301.154 233.374C302.287 231.979 303.54 230.687 304.9 229.513C305.763 228.874 306.574 228.166 307.324 227.397" stroke="#263238" stroke-width="0.75" stroke-linecap="round" stroke-linejoin="round"/>
<path d="M301.317 229.853C300.385 228.349 299.34 226.919 298.189 225.575C297.059 224.342 295.829 223.203 294.514 222.17" stroke="#263238" stroke-width="0.75" stroke-linecap="round" stroke-linejoin="round"/>
<path d="M300.313 240.88C300.195 239.312 299.662 237.803 298.768 236.509C297.34 234.625 295.68 232.123 294.969 231.104" stroke="#263238" stroke-width="0.75" stroke-linecap="round" stroke-linejoin="round"/>
<path d="M293.78 245.698H315.934V257.15C315.934 257.66 315.732 258.149 315.371 258.51C315.01 258.87 314.521 259.073 314.011 259.073H295.703C295.193 259.073 294.704 258.87 294.343 258.51C293.983 258.149 293.78 257.66 293.78 257.15V245.698Z" fill="#263238" stroke="#263238" stroke-linecap="round" stroke-linejoin="round"/>
<path d="M33.0886 148.65C33.0886 148.65 33.0886 145.885 29.2276 142.024C25.3667 138.163 22.8648 135.955 22.8648 135.955C22.8648 135.955 20.9343 142.302 24.5173 146.163C27.1579 148.88 30.0197 151.372 33.0732 153.615L33.0886 148.65Z" fill="#D3EEFE"/>
<path d="M27.4979 165.877C27.4979 165.877 27.4979 163.12 23.6369 159.259C19.776 155.398 17.2741 153.159 17.2741 153.159C17.2741 153.159 15.3436 159.499 18.9266 163.367C21.5698 166.094 24.4369 168.594 27.4979 170.842V165.877Z" fill="#D3EEFE"/>
<path d="M32.8492 153.344C32.8492 153.344 33.1349 150.603 37.3897 147.167C41.6445 143.731 44.3394 141.808 44.3394 141.808C44.3394 141.808 45.5904 148.317 41.6136 151.785C38.7103 154.205 35.6108 156.38 32.3473 158.286L32.8492 153.344Z" fill="#D3EEFE"/>
<path d="M26.0771 173.699C26.0771 173.699 26.6563 170.997 31.2354 168.031C35.8144 165.066 38.7179 163.398 38.7179 163.398C38.7179 163.398 39.2739 170.001 34.9573 173.028C31.8085 175.133 28.4895 176.972 25.0347 178.526L26.0771 173.699Z" fill="#D3EEFE"/>
<path d="M27.3512 195.884C27.3512 195.884 27.3512 193.128 31.2121 189.259C35.0731 185.39 37.5364 183.19 37.5364 183.19C37.5364 183.19 39.4668 189.537 35.8761 193.398C33.2416 196.118 30.3821 198.611 27.328 200.85L27.3512 195.884Z" fill="#D3EEFE"/>
<path d="M27.2817 201.297C27.2817 201.297 27.6755 198.572 24.4015 194.193C21.1274 189.815 18.9961 187.282 18.9961 187.282C18.9961 187.282 16.1854 193.29 19.1815 197.63C21.4085 200.694 23.8882 203.566 26.5945 206.216L27.2817 201.297Z" fill="#D3EEFE"/>
<path d="M23.4748 217.351C23.4748 217.351 23.4748 214.595 27.3357 210.726C31.1967 206.857 33.6754 204.656 33.6754 204.656C33.6754 204.656 35.6059 211.004 32.0229 214.865C29.3823 217.581 26.5205 220.074 23.467 222.316L23.4748 217.351Z" fill="#D3EEFE"/>
<path d="M26.0539 231.922C26.0539 231.922 25.3513 229.258 28.1157 224.54C30.8801 219.822 32.7488 217.058 32.7488 217.058C32.7488 217.058 36.1928 222.656 33.6755 227.336C31.8103 230.63 29.6743 233.763 27.2895 236.702L26.0539 231.922Z" fill="#D3EEFE"/>
<path d="M33.436 147.939C33.2437 150.814 32.8905 153.675 32.3781 156.51C30.8337 164.394 27.0345 169.483 25.5133 176.587C23.9921 183.691 28.3704 192.896 27.1967 202.07C26.023 211.243 22.4555 216.309 23.4748 222.417C24.494 228.525 29.9612 245.667 29.9612 245.667" stroke="#263238" stroke-width="0.75" stroke-linecap="round" stroke-linejoin="round"/>
<path d="M32.8105 155.182L36.9727 151.985" stroke="#263238" stroke-width="0.75" stroke-linecap="round" stroke-linejoin="round"/>
<path d="M33.0036 151.499L31.2584 148.402" stroke="#263238" stroke-width="0.75" stroke-linecap="round" stroke-linejoin="round"/>
<path d="M25.745 176.325C25.745 176.325 29.2276 173.707 32.8105 171.097" stroke="#263238" stroke-width="0.75" stroke-linecap="round" stroke-linejoin="round"/>
<path d="M27.2972 170.356C25.6087 167.171 23.6065 164.162 21.3204 161.375" stroke="#263238" stroke-width="0.75" stroke-linecap="round" stroke-linejoin="round"/>
<path d="M27.4979 199.807C29.4888 196.141 32.0015 192.783 34.9573 189.838" stroke="#263238" stroke-width="0.75" stroke-linecap="round" stroke-linejoin="round"/>
<path d="M26.8029 203.684C25.7478 201.194 24.4874 198.798 23.0346 196.518C20.996 193.514 20.718 193.128 20.718 193.128" stroke="#263238" stroke-width="0.75" stroke-linecap="round" stroke-linejoin="round"/>
<path d="M23.4747 222.417C24.3586 220.225 25.4066 218.103 26.6098 216.069C27.8187 214.188 29.1797 212.408 30.6793 210.749" stroke="#263238" stroke-width="0.75" stroke-linecap="round" stroke-linejoin="round"/>
<path d="M27.3126 236.702C27.1104 234.61 27.4703 232.501 28.355 230.594C29.8067 227.784 31.4438 224.108 32.131 222.656" stroke="#263238" stroke-width="0.75" stroke-linecap="round" stroke-linejoin="round"/>
<path d="M7.79159 185.506C7.79159 185.506 7.49816 183.776 9.49813 180.935C11.4981 178.093 12.8186 176.441 12.8186 176.441C12.8186 176.441 14.7181 180.209 12.888 183.02C11.5284 185.01 10.0044 186.882 8.33213 188.618L7.79159 185.506Z" fill="#D3EEFE"/>
<path d="M13.1814 195.707C13.1814 195.707 12.8803 193.977 14.888 191.135C16.8957 188.294 18.2084 186.634 18.2084 186.634C18.2084 186.634 20.108 190.41 18.2779 193.22C16.9182 195.21 15.3943 197.083 13.722 198.819L13.1814 195.707Z" fill="#D3EEFE"/>
<path d="M8.45569 188.425C8.45569 188.425 7.97693 186.742 4.94222 185.051C1.90751 183.359 0.000202034 182.441 0.000202034 182.441C0.000202034 182.441 -0.0770166 186.657 2.78781 188.402C4.87571 189.611 7.06087 190.644 9.32054 191.491L8.45569 188.425Z" fill="#D3EEFE"/>
<path d="M14.9112 200.456C14.9112 200.456 14.2549 198.826 11.0503 197.46C7.84567 196.093 5.87659 195.382 5.87659 195.382C5.87659 195.382 6.24724 199.591 9.28195 201.019C11.485 201.998 13.7657 202.791 16.1004 203.39L14.9112 200.456Z" fill="#D3EEFE"/>
<path d="M16.525 214.502C16.525 214.502 16.2239 212.772 13.3822 210.772C10.5406 208.772 8.74909 207.683 8.74909 207.683C8.74909 207.683 8.19312 211.846 10.8881 213.876C12.8402 215.293 14.9064 216.546 17.0656 217.622L16.525 214.502Z" fill="#D3EEFE"/>
<path d="M17.1506 217.892C17.1506 217.892 16.61 216.224 18.1853 213.127C19.7606 210.031 20.8339 208.208 20.8339 208.208C20.8339 208.208 23.2509 211.668 21.8378 214.71C20.7774 216.87 19.5376 218.936 18.1312 220.888L17.1506 217.892Z" fill="#D3EEFE"/>
<path d="M21.9999 231.853C21.9999 231.853 22.2007 230.108 24.9265 227.946C27.6523 225.784 29.3743 224.571 29.3743 224.571C29.3743 224.571 30.1465 228.718 27.5905 230.903C25.7241 232.436 23.7326 233.81 21.637 235.011L21.9999 231.853Z" fill="#D3EEFE"/>
<path d="M21.3203 227.544C21.3203 227.544 21.0192 225.814 18.1775 223.814C15.3358 221.814 13.5444 220.726 13.5444 220.726C13.5444 220.726 13.0193 224.919 15.6911 226.95C17.6423 228.368 19.7087 229.621 21.8686 230.695L21.3203 227.544Z" fill="#D3EEFE"/>
<path d="M21.2431 236.949C21.2431 236.949 21.3899 235.204 19.1505 232.54C16.9112 229.876 15.4517 228.355 15.4517 228.355C15.4517 228.355 13.9073 232.27 15.9536 234.919C17.4822 236.783 19.1637 238.516 20.9806 240.1L21.2431 236.949Z" fill="#D3EEFE"/>
<path d="M7.49817 185.105C7.93498 186.884 8.46597 188.64 9.08888 190.363C10.9035 195.143 13.8533 197.915 15.583 202.224C17.3127 206.533 15.583 212.757 17.2895 218.371C18.9961 223.984 21.8069 226.787 21.83 230.726C21.8532 234.664 20.2856 245.621 20.2856 245.621" stroke="#263238" stroke-width="0.75" stroke-linecap="round" stroke-linejoin="round"/>
<path d="M8.67966 189.576L5.72217 188.023" stroke="#263238" stroke-width="0.75" stroke-linecap="round" stroke-linejoin="round"/>
<path d="M8.16223 187.29L8.91898 185.159" stroke="#263238" stroke-width="0.75" stroke-linecap="round" stroke-linejoin="round"/>
<path d="M15.4054 202.039C15.4054 202.039 12.9344 200.78 10.4016 199.529" stroke="#263238" stroke-width="0.75" stroke-linecap="round" stroke-linejoin="round"/>
<path d="M13.6989 198.278C14.4899 196.179 15.4532 194.149 16.5791 192.209" stroke="#263238" stroke-width="0.75" stroke-linecap="round" stroke-linejoin="round"/>
<path d="M16.8648 216.981C15.2149 214.911 13.2747 213.09 11.1042 211.575" stroke="#263238" stroke-width="0.75" stroke-linecap="round" stroke-linejoin="round"/>
<path d="M17.7065 219.336C18.1005 217.66 18.6325 216.02 19.2973 214.432C20.2471 212.332 20.386 212.054 20.386 212.054" stroke="#263238" stroke-width="0.75" stroke-linecap="round" stroke-linejoin="round"/>
<path d="M21.6987 233.714C22.6591 232.523 23.7238 231.419 24.8802 230.417C25.6145 229.873 26.304 229.272 26.9419 228.617" stroke="#263238" stroke-width="0.75" stroke-linecap="round" stroke-linejoin="round"/>
<path d="M21.8301 230.726C21.0397 229.447 20.1516 228.231 19.1737 227.089C18.2254 226.038 17.1924 225.067 16.085 224.185" stroke="#263238" stroke-width="0.75" stroke-linecap="round" stroke-linejoin="round"/>
<path d="M20.9806 240.1C20.8765 238.765 20.421 237.48 19.6601 236.378C18.4478 234.78 17.0115 232.648 16.4324 231.814" stroke="#263238" stroke-width="0.75" stroke-linecap="round" stroke-linejoin="round"/>
<path d="M14.2471 245.698H36.4012V257.15C36.4012 257.405 36.3505 257.658 36.252 257.893C36.1534 258.128 36.009 258.342 35.8272 258.521C35.6453 258.7 35.4297 258.841 35.1929 258.935C34.956 259.03 34.7027 259.077 34.4476 259.073H16.1698C15.6599 259.073 15.1708 258.87 14.8102 258.51C14.4496 258.149 14.2471 257.66 14.2471 257.15V245.698Z" fill="#263238" stroke="#263238" stroke-linecap="round" stroke-linejoin="round"/>
<path d="M225.287 102.194C222.584 105.559 220.749 109.537 219.943 113.777C218.522 120.982 215.024 134.518 215.464 139.213C215.905 143.908 217.009 146.526 221.248 147.29C225.487 148.055 227.904 144.341 228.785 141.175C229.343 139.091 229.778 136.977 230.09 134.843L230.962 117.638C230.962 117.638 229.418 107.299 228.684 105.121C227.951 102.943 225.287 102.194 225.287 102.194Z" fill="#D3EEFE" stroke="#263238" stroke-linecap="round" stroke-linejoin="round"/>
<path d="M282.074 98.7505C282.074 98.7505 283.618 98.4107 285.085 103.77C286.552 109.129 288.321 116.82 291.216 126.302C294.112 135.785 294.676 138.912 294.452 141.028C294.228 143.144 292.56 145.491 286.73 145.491C280.9 145.491 278.236 143.26 276.691 138.24C275.147 133.221 275.371 117.715 275.263 115.708C275.155 113.7 280.282 97.7466 282.074 98.7505Z" fill="#D3EEFE" stroke="#263238" stroke-linecap="round" stroke-linejoin="round"/>
<path d="M242.244 265.312C242.244 265.312 238.453 269.327 236.221 271.899C233.989 274.47 233.209 276.022 236.885 277.582C240.561 279.142 246.259 276.81 247.935 274.238C249.611 271.667 253.178 268.771 253.178 268.771C253.178 268.771 255.07 266.656 252.615 263.644C250.159 260.632 243.356 264.084 242.244 265.312Z" fill="white" stroke="#263238" stroke-linecap="round" stroke-linejoin="round"/>
<path d="M265 268.663C265 268.663 268.792 269.219 270.799 270.98C272.807 272.74 279.842 276.671 284.521 274.771C289.201 272.872 286.197 269.752 283.633 267.52C282.193 266.243 280.622 265.123 278.946 264.177C278.946 264.177 271.471 263.621 268.135 265.289C264.8 266.957 265 268.663 265 268.663Z" fill="white" stroke="#263238" stroke-linecap="round" stroke-linejoin="round"/>
<path d="M237.889 216.78C237.889 216.78 239.68 230.17 238.784 234.185C237.889 238.2 235.325 240.548 237.24 244.455C238.658 247.476 239.695 250.661 240.329 253.938C240.553 255.273 239.325 255.606 240.329 257.026C241.061 257.942 241.661 258.956 242.113 260.038C242.113 260.378 240.777 262.27 240.777 262.717C240.777 263.165 241.449 265.953 241.449 265.953C241.449 265.953 245.016 265.181 247.58 266.177C249.437 266.977 251.196 267.987 252.823 269.188C252.823 269.188 255.139 268.293 255.95 266.957C256.387 266.257 256.652 265.463 256.722 264.64C256.831 264.192 257.95 261.845 257.842 260.061C257.734 258.277 256.499 254.486 256.499 252.254C256.499 250.023 258.174 247.567 258.174 244C258.174 240.432 256.499 217.56 256.499 217.56L258.043 216.996C258.043 216.996 260.498 230.61 260.498 236.973C260.498 243.335 258.607 251.25 259.834 252.81C261.062 254.37 262.506 255.714 262.506 256.046C262.506 256.378 261.054 258.833 261.394 260.061C261.924 261.674 262.37 263.313 262.73 264.972C262.73 265.644 263.958 268.208 264.962 268.656C265.966 269.103 266.506 268.092 272.437 266.872C278.367 265.652 281.703 265.976 281.139 264.192C280.575 262.409 280.027 260.061 279.355 259.613C278.684 259.165 279.579 258.841 279.355 257.165C279.131 255.49 277.904 253.706 276.792 251.026C275.68 248.347 277.232 245.451 277.68 242.656C278.128 239.861 277.456 235.706 276.344 231.166C275.232 226.625 276.228 215.436 276.228 215.436L276.792 211.089C276.792 211.089 259.719 212.633 249.232 212.533L237.966 212.425C237.966 212.425 237.225 213.212 237.889 216.78Z" fill="#263238" stroke="#263238" stroke-linecap="round" stroke-linejoin="round"/>
<path d="M281.178 170.147C281.178 170.147 282.722 190.456 284.745 201.035C285.909 207.006 286.647 213.052 286.954 219.127H278.838C278.498 219.127 279.394 181.529 279.61 178.201C279.904 175.477 280.429 172.783 281.178 170.147Z" fill="#D3EEFE" stroke="#263238" stroke-linecap="round" stroke-linejoin="round"/>
<path d="M247.572 87.5228C247.572 87.5228 238.09 93.878 233.186 96.1096C228.283 98.3412 225.596 101.245 225.264 102.287C224.931 103.33 230.615 119.353 230.615 119.353C230.615 119.353 230.283 172.348 230.283 181.274C230.283 190.201 227.495 217.081 227.827 217.081C228.159 217.081 237.093 222.888 249.356 223.22C261.618 223.552 265.572 221.768 269.433 221.768C273.294 221.768 281.016 221.768 281.147 220.656C281.278 219.544 281.371 194.88 281.479 183.39C281.587 171.9 281.703 163.753 281.479 161.862C281.255 159.97 278.135 119.129 278.135 119.129C278.135 119.129 280.452 112.326 281.819 106.858C283.186 101.391 283.155 100.72 281.479 98.2717C279.803 95.8239 267.232 89.1521 265 88.295C262.258 87.3352 259.403 86.7356 256.506 86.5113C254.406 86.3645 247.572 87.5228 247.572 87.5228Z" fill="#D3EEFE" stroke="#263238" stroke-linecap="round" stroke-linejoin="round"/>
<path d="M226.623 132.889C226.623 132.889 228.074 136.233 229.858 137.684C231.642 139.136 235.773 139.808 236.661 142.039C237.549 144.271 236.661 145.939 235.657 148.619C234.653 151.298 235.217 155.761 231.534 156.34C227.85 156.92 226.738 155.568 223.719 153.437C220.7 151.306 218.816 150.981 217.032 147.746C215.248 144.511 214.715 140.024 216.26 137.599" fill="#D3EEFE"/>
<path d="M226.623 132.889C226.623 132.889 228.074 136.233 229.858 137.684C231.642 139.136 235.773 139.808 236.661 142.039C237.549 144.271 236.661 145.939 235.657 148.619C234.653 151.298 235.217 155.761 231.534 156.34C227.85 156.92 226.738 155.568 223.719 153.437C220.7 151.306 218.816 150.981 217.032 147.746C215.248 144.511 214.715 140.024 216.26 137.599" stroke="#263238" stroke-linecap="round" stroke-linejoin="round"/>
<path d="M247.155 83.1292L246.8 92.5035C246.8 92.5035 245.912 93.8394 251.263 94.1715C254.703 94.3518 258.152 94.0923 261.526 93.3993L260.638 83.2527C260.638 83.2527 255.055 85.5693 251.819 84.4805C250.302 83.9096 248.743 83.4578 247.155 83.1292Z" fill="white" stroke="#263238" stroke-linecap="round" stroke-linejoin="round"/>
<path d="M245.032 80.7893C245.032 80.7893 244.259 91.6 243.696 94.8432C243.132 98.0864 243.248 100.086 244.468 100.866C245.688 101.646 252.831 104.441 256.514 104.218C260.197 103.994 265.78 100.642 266.221 99.6385C266.661 98.6346 262.885 82.8897 262.885 82.8897L262.321 83.5615C262.321 83.5615 263.325 91.8162 262.993 92.0556C262.661 92.2949 249.719 91.3838 247.371 91.2834C245.024 91.183 245.703 91.0594 245.703 91.0594L245.588 81.5769L245.032 80.7893Z" fill="white" stroke="#263238" stroke-linecap="round" stroke-linejoin="round"/>
<path d="M244.676 93.6541C244.676 93.6541 256.869 95.4533 264.182 94.0401" stroke="#263238" stroke-width="0.5" stroke-miterlimit="10"/>
<path d="M244.167 96.4802C244.167 96.4802 252.661 100.071 264.182 96.8586" stroke="#263238" stroke-width="0.5" stroke-miterlimit="10"/>
<path d="M245.062 99.8161C245.062 99.8161 253.147 104.179 264.182 99.5536" stroke="#263238" stroke-width="0.5" stroke-miterlimit="10"/>
<path d="M264.784 69.4073C265.062 65.9787 265.294 62.4576 264.444 60.7047C263.109 57.9171 259.085 54.6816 253.286 54.9055C247.487 55.1295 242.576 57.3611 242.692 64.4961C242.692 64.4961 242.939 66.6197 243.225 69.222C242.693 70.3583 242.508 71.6258 242.692 72.8667C242.872 74.0574 243.289 75.1997 243.92 76.2257C243.974 76.8898 244.012 77.4612 244.028 77.8859C244.136 80.8975 246.143 84.465 247.935 85.6928C249.726 86.9206 253.062 88.8201 255.186 88.8201C257.309 88.8201 261.093 86.8124 262.908 83.909C264.313 81.5924 264.452 80.0481 264.452 77.3222H264.56C264.88 75.8906 265.068 74.4329 265.124 72.9671C265.17 71.7706 265.055 70.5735 264.784 69.4073Z" fill="white" stroke="#263238" stroke-linecap="round" stroke-linejoin="round"/>
<path d="M243.711 70.079C243.711 70.079 244.043 72.8666 244.599 72.7508C245.155 72.635 245.827 68.6273 245.827 68.6273L243.711 70.079Z" fill="#263238" stroke="#263238" stroke-linecap="round" stroke-linejoin="round"/>
<path d="M262.661 69.7625C262.661 69.7625 262.661 72.8898 263.433 73.3377C264.205 73.7856 264.769 70.6582 264.769 70.6582C264.136 70.2159 263.418 69.9108 262.661 69.7625Z" fill="#263238" stroke="#263238" stroke-linecap="round" stroke-linejoin="round"/>
<path d="M264.444 60.7047C263.108 57.9171 259.085 54.6816 253.286 54.9055C247.487 55.1295 242.576 57.3611 242.692 64.4961C242.692 64.4961 242.939 66.6197 243.225 69.222C242.873 69.9764 242.671 70.792 242.63 71.6235C244.8 69.886 248.862 67.3996 253.958 67.8475C257.924 68.2994 261.736 69.6431 265.108 71.7779C265.073 70.9794 264.965 70.1859 264.784 69.4073C265.062 65.9787 265.332 62.4807 264.444 60.7047Z" fill="#D3EEFE" stroke="#263238" stroke-linecap="round" stroke-linejoin="round"/>
<path d="M252.506 72.079L251.834 76.0944C251.834 76.0944 250.607 76.2025 251.062 76.9824C251.518 77.7623 253.85 78.6581 254.97 78.326C256.089 77.994 257.201 76.8743 257.085 76.4265C257.051 76.2925 256.981 76.1702 256.883 76.0724C256.786 75.9746 256.663 75.9049 256.529 75.8705L255.078 71.7393" stroke="#263238" stroke-linecap="round" stroke-linejoin="round"/>
<path d="M251.279 80.3415C253.421 80.8037 255.644 80.7268 257.75 80.1176" stroke="#263238" stroke-linecap="round" stroke-linejoin="round"/>
<path d="M250.051 71.9169C250.051 72.5038 249.75 72.9748 249.379 72.9748C249.008 72.9748 248.715 72.5038 248.715 71.9169C248.715 71.33 249.016 70.859 249.379 70.859C249.742 70.859 250.051 71.3069 250.051 71.9169Z" fill="#263238"/>
<path d="M258.53 71.8628C258.53 72.4497 258.228 72.9207 257.865 72.9207C257.502 72.9207 257.194 72.4497 257.194 71.8628C257.194 71.276 257.495 70.8049 257.865 70.8049C258.236 70.8049 258.53 71.3069 258.53 71.8628Z" fill="#263238"/>
<path d="M247.487 70.303C247.487 70.303 248.259 68.4034 250.723 69.0752" stroke="#263238" stroke-linecap="round" stroke-linejoin="round"/>
<path d="M255.742 69.1833C255.742 69.1833 258.058 67.5077 259.757 70.4111" stroke="#263238" stroke-linecap="round" stroke-linejoin="round"/>
<path d="M234.653 146.835C234.653 146.835 241.464 148.379 243.024 148.063C245.068 147.681 246.941 146.665 248.375 145.159C250.391 143.151 252.058 141.476 252.058 143.151C252.065 143.813 251.941 144.469 251.691 145.081C251.442 145.694 251.073 146.25 250.607 146.719C249.835 147.615 248.375 148.619 248.043 150.07C247.711 151.522 248.159 152.634 249.943 153.306C251.726 153.978 257.302 154.974 257.302 156.395C257.302 157.815 256.854 161.198 254.846 162.309C252.838 163.421 247.935 162.642 247.935 162.642C247.935 162.642 251.95 164.873 251.17 165.437C250.391 166.001 248.043 165.213 246.931 164.209C245.819 163.205 245.387 163.089 242.128 160.75C238.869 158.41 236.105 155.615 234.545 154.727C233.7 154.331 232.919 153.81 232.229 153.182C231.333 152.41 231.001 150.866 231.665 149.059C231.891 148.523 232.227 148.041 232.649 147.642C233.072 147.244 233.573 146.937 234.12 146.742L234.653 146.835Z" fill="white" stroke="#263238" stroke-linecap="round" stroke-linejoin="round"/>
<path d="M287.649 134.117C287.649 134.117 279.618 135.661 278.838 136.233C278.058 136.804 278.838 139.136 278.838 139.136C278.838 139.136 272.027 142.372 269.464 144.155C266.9 145.939 269.24 149.514 269.356 149.954C269.356 149.954 271.363 156.541 274.707 158.773C278.05 161.004 281.51 160.217 284.861 156.649C288.212 153.082 290.328 148.155 291.888 146.495C293.448 144.835 295.124 143.26 294.568 139.545C294.012 135.831 291.108 135.414 291.108 135.414" fill="#D3EEFE"/>
<path d="M287.649 134.117C287.649 134.117 279.618 135.661 278.838 136.233C278.058 136.804 278.838 139.136 278.838 139.136C278.838 139.136 272.027 142.372 269.464 144.155C266.9 145.939 269.24 149.514 269.356 149.954C269.356 149.954 271.363 156.541 274.707 158.773C278.05 161.004 281.51 160.217 284.861 156.649C288.212 153.082 290.328 148.155 291.888 146.495C293.448 144.835 295.124 143.26 294.568 139.545C294.012 135.831 291.108 135.414 291.108 135.414" stroke="#263238" stroke-linecap="round" stroke-linejoin="round"/>
<path d="M271.247 148.842C271.247 148.842 266.12 150.178 264.668 150.294C263.217 150.41 262.993 150.626 262.105 149.954C261.217 149.283 257.078 146.866 255.155 144.603C253.232 142.341 251.804 141.924 252.028 143.151C252.252 144.379 251.804 145.267 253.147 146.163C254.491 147.059 255.819 149.514 255.819 150.518C255.819 151.522 255.711 151.854 252.923 152.835C250.136 153.815 243.773 155.066 244.429 155.846C245.086 156.626 246.437 156.85 247.889 156.742C249.34 156.634 255.363 155.738 255.804 156.07C255.949 156.219 256.058 156.399 256.121 156.598C256.184 156.796 256.201 157.006 256.168 157.211C256.136 157.417 256.056 157.612 255.935 157.781C255.814 157.95 255.656 158.089 255.472 158.186C254.468 158.858 250.9 158.858 248.777 159.082C246.653 159.306 246.545 159.854 247.441 160.309C248.879 160.846 250.409 161.095 251.943 161.043C253.726 161.043 255.804 160.865 254.916 161.421C254.028 161.977 252.792 162.093 250.56 162.425C248.329 162.757 247.549 161.761 247.889 162.649C248.228 163.537 250.9 163.545 254.244 163.421C257.287 163.266 260.243 162.347 262.838 160.75C265.07 159.406 273.209 157.398 273.772 156.958C274.336 156.518 275.216 153.939 274.661 150.819C274.105 147.7 271.247 148.842 271.247 148.842Z" fill="white" stroke="#263238" stroke-linecap="round" stroke-linejoin="round"/>
<path d="M280.066 135.785C282.24 133.986 284.595 132.417 287.093 131.105" stroke="#263238" stroke-linecap="round" stroke-linejoin="round"/>
<path d="M249.271 156.804C249.271 156.804 255.618 156.078 256.259 155.985C256.9 155.893 258.074 156.618 257.526 157.437C256.977 158.256 256.707 158.07 254.437 158.526C252.183 158.868 249.905 159.021 247.626 158.981" fill="white"/>
<path d="M249.271 156.804C249.271 156.804 255.618 156.078 256.259 155.985C256.9 155.893 258.074 156.618 257.526 157.437C256.977 158.256 256.707 158.07 254.437 158.526C252.183 158.868 249.905 159.021 247.626 158.981" stroke="#263238" stroke-linecap="round" stroke-linejoin="round"/>
<path d="M249.997 161.159C249.997 161.159 257.07 160.703 256.892 161.252C256.715 161.8 256.259 162.518 253.719 162.703C251.178 162.889 248.313 163.066 245.912 161.885" fill="white"/>
<path d="M249.997 161.159C249.997 161.159 257.07 160.703 256.892 161.252C256.715 161.8 256.259 162.518 253.719 162.703C251.178 162.889 248.313 163.066 245.912 161.885" stroke="#263238" stroke-linecap="round" stroke-linejoin="round"/>
<path d="M179.249 259.814C179.249 259.814 180.453 261.011 175.65 263.945C170.847 266.88 166.84 268.215 166.84 269.953C166.84 271.69 172.175 273.42 177.65 272.084C183.125 270.748 185.372 270.354 188.461 269.822C191.55 269.289 192.469 266.617 192.469 262.872C192.469 259.127 184.33 258.239 183.395 258.069C182.461 257.899 179.92 258.347 179.249 259.814Z" fill="white" stroke="#263238" stroke-linecap="round" stroke-linejoin="round"/>
<path d="M191.256 262.88C189.235 265.908 186.761 268.609 183.921 270.887C179.782 273.976 179.249 275.42 181.388 276.223C183.527 277.026 189.658 277.289 193.797 275.69C197.936 274.092 199.936 271.69 201.133 270.617C202.33 269.544 203.001 270.215 203.001 265.945C203.001 261.675 198.461 260.208 194.731 260.478C191.002 260.748 191.256 262.88 191.256 262.88Z" fill="white" stroke="#263238" stroke-linecap="round" stroke-linejoin="round"/>
<path d="M174.986 175.885C174.986 175.885 176.191 200.17 176.592 207.243C176.994 214.317 179.928 240.864 180.453 247.135C180.978 253.405 180.986 255.274 180.986 255.274C180.986 255.274 178.585 257.011 178.585 257.412C178.585 257.814 178.314 261.544 178.314 261.544C180.087 262.52 181.968 263.282 183.92 263.814C186.065 264.297 188.273 264.433 190.461 264.215C190.461 264.215 194.862 265.683 198.6 266.748C202.337 267.814 203.804 267.281 203.804 267.281C203.804 267.281 204.87 261.945 205.133 260.208C205.395 258.47 209.936 240.061 209.936 231.637C209.936 223.212 208.87 219.359 207.271 214.425C205.673 209.49 209.403 191.869 210.739 185.468C211.504 181.896 212.084 178.288 212.476 174.657C212.476 174.657 201.001 180.556 174.986 175.885Z" fill="#263238" stroke="#263238" stroke-linecap="round" stroke-linejoin="round"/>
<path d="M189.928 184.047C189.928 184.047 189.256 201.807 189.256 208.595C189.256 215.382 190.994 223.676 191.789 231.683C192.584 239.691 192.059 252.764 191.125 255.034C190.191 257.304 189.527 258.123 189.658 259.837C189.789 261.551 189.928 263.968 189.928 263.968" stroke="white" stroke-linecap="round" stroke-linejoin="round"/>
<path d="M187.789 80.7431C187.789 80.7431 187.017 78.3416 185.781 79.2759C184.546 80.2103 185.388 81.9477 186.453 83.6851C187.519 85.4225 188.716 85.8164 188.855 84.882C188.994 83.9477 187.789 80.7431 187.789 80.7431Z" fill="white" stroke="#263238" stroke-linecap="round" stroke-linejoin="round"/>
<path d="M187.789 81.8164L186.453 77.9555C186.453 77.9555 180.855 75.6852 182.592 70.0791C184.33 64.473 197.673 59.4075 201.272 59.4075C204.87 59.4075 211.812 64.2105 213.017 69.8166C214.221 75.4227 210.214 80.4883 210.214 80.4883C210.214 80.4883 208.476 85.4226 207.125 85.16C205.773 84.8975 206.584 81.0211 204.855 77.9555C203.125 74.8899 202.052 73.3223 200.183 74.0945C198.314 74.8667 190.577 77.1833 189.913 78.2258C189.249 79.2682 188.059 82.4805 187.789 81.8164Z" fill="#263238" stroke="#263238" stroke-linecap="round" stroke-linejoin="round"/>
<path d="M214.878 136.789L215.542 140.256L207.271 153.066L209.14 156.001C213.064 153.385 216.648 150.293 219.812 146.796C225.148 140.928 225.68 140.124 225.68 137.723C225.68 135.321 223.82 131.182 223.82 131.182C223.82 131.182 220.082 136.789 214.878 136.789Z" fill="white" stroke="#263238" stroke-linecap="round" stroke-linejoin="round"/>
<path d="M169.643 129.051C169.643 129.051 166.971 135.453 167.511 137.453C168.052 139.453 177.249 151.198 177.249 151.198L178.847 146.796C178.847 146.796 175.38 139.592 175.38 137.19C175.38 134.789 176.585 130.117 176.585 130.117L169.643 129.051Z" stroke="#263238" stroke-linecap="round" stroke-linejoin="round"/>
<path d="M193.264 97.2911C193.264 97.2911 181.789 101.693 179.65 102.364C177.511 103.036 176.044 103.43 175.913 104.094C175.782 104.758 169.38 121.175 168.191 123.445C167.002 125.715 165.388 128.248 165.388 128.248C166.942 129.22 168.545 130.112 170.191 130.92C171.87 131.654 173.612 132.233 175.396 132.65L176.168 141.862L168.291 176.549C168.291 176.549 184.036 180.95 194.546 180.556C201.237 180.329 207.853 179.068 214.159 176.819C216.167 176.147 219.233 174.95 219.233 174.95L209.194 137.19L209.966 131.584L210.499 137.059C210.499 137.059 215.835 138.256 218.901 137.453C221.966 136.65 225.85 133.592 225.85 133.592L215.974 102.774L197.565 97.7004L193.264 97.2911Z" fill="#D3EEFE" stroke="#263238" stroke-linecap="round" stroke-linejoin="round"/>
<path d="M206.229 100.048L197.665 97.6927L193.264 97.2911L189.303 98.8355C189.225 100.936 189.125 104.511 189.125 108.797C189.125 115.746 189.897 121.878 191.928 120.673C193.959 119.468 203.511 106.534 205.133 102.913C205.571 101.987 205.937 101.029 206.229 100.048Z" fill="#D3EEFE" stroke="#263238" stroke-linecap="round" stroke-linejoin="round"/>
<path d="M210.075 131.584C209.804 131.322 208.607 119.839 208.607 119.839" stroke="#263238" stroke-linecap="round" stroke-linejoin="round"/>
<path d="M175.38 132.65C175.38 132.65 174.446 128.117 174.716 126.38C174.986 124.642 176.847 114.372 176.847 114.372" stroke="#263238" stroke-linecap="round" stroke-linejoin="round"/>
<path d="M179.921 151.87C179.921 151.87 173.782 153.869 173.782 154.271C173.782 154.673 173.643 156.534 173.643 156.534L179.921 153.599V151.87Z" stroke="#263238" stroke-linecap="round" stroke-linejoin="round"/>
<path d="M196.198 152.804L195.928 154.534L209.272 158.001L209.936 156.673L196.198 152.804Z" stroke="#263238" stroke-linecap="round" stroke-linejoin="round"/>
<path d="M200.6 126.271C200.418 126.271 200.243 126.199 200.114 126.07C199.985 125.941 199.913 125.766 199.913 125.584C199.913 123.268 201.063 117.677 202.183 112.272C203.071 107.971 203.913 103.901 203.913 102.627C203.947 101.925 203.831 101.223 203.573 100.57C203.314 99.9158 202.919 99.3246 202.414 98.8355C200.816 97.3529 197.974 96.7506 193.974 97.0441C185.627 97.6618 185.017 116.349 185.009 116.526C185.005 116.706 184.931 116.877 184.803 117.002C184.674 117.128 184.502 117.198 184.322 117.198C184.232 117.195 184.143 117.174 184.061 117.137C183.979 117.1 183.904 117.047 183.843 116.981C183.781 116.915 183.733 116.837 183.701 116.753C183.67 116.668 183.655 116.578 183.658 116.488C183.658 115.669 184.314 96.4109 193.897 95.6387C198.299 95.3221 201.488 96.0402 203.372 97.8008C204.014 98.419 204.518 99.1655 204.852 99.9918C205.186 100.818 205.342 101.705 205.31 102.596C205.31 104.009 204.499 107.955 203.557 112.519C202.499 117.607 201.31 123.376 201.31 125.553C201.315 125.648 201.299 125.743 201.265 125.831C201.231 125.92 201.179 126 201.112 126.068C201.046 126.135 200.966 126.188 200.877 126.223C200.789 126.258 200.695 126.275 200.6 126.271Z" fill="#263238" stroke="#263238" stroke-linecap="round" stroke-linejoin="round"/>
<path d="M191.789 93.1599C191.789 93.1599 191.789 97.0209 191.658 97.793C191.527 98.5652 191.658 101.932 191.658 106.472C191.658 111.013 192.43 114.071 193.527 113.005C194.623 111.94 201.665 102.465 202.067 100.596C202.303 99.5457 202.437 98.4752 202.469 97.3992L203.001 92.0557C203.001 92.0557 194.731 94.4572 191.256 93.3916" fill="white"/>
<path d="M191.789 93.1599C191.789 93.1599 191.789 97.0209 191.658 97.793C191.527 98.5652 191.658 101.932 191.658 106.472C191.658 111.013 192.43 114.071 193.527 113.005C194.623 111.94 201.665 102.465 202.067 100.596C202.303 99.5457 202.437 98.4752 202.469 97.3992L203.001 92.0557C203.001 92.0557 194.731 94.4572 191.256 93.3916" stroke="#263238" stroke-linecap="round" stroke-linejoin="round"/>
<path d="M205.534 85.1522C206.229 89.7874 206.408 94.4853 206.067 99.1598C205.534 107.299 204.569 111.113 202.206 112.287C199.843 113.461 202.893 114.789 206.492 114.92C210.09 115.051 215.434 114.519 216.368 103.847C217.302 93.1753 209.565 86.2333 208.893 84.8974C208.721 84.5872 208.464 84.3328 208.152 84.1644C207.84 83.9961 207.486 83.9209 207.132 83.9477C206.778 83.9745 206.44 84.1023 206.156 84.3158C205.873 84.5293 205.657 84.8196 205.534 85.1522Z" fill="#263238" stroke="#263238" stroke-linecap="round" stroke-linejoin="round"/>
<path d="M179.519 125.87H179.465C179.371 125.864 179.28 125.84 179.196 125.797C179.113 125.754 179.039 125.695 178.979 125.622C178.92 125.55 178.876 125.466 178.851 125.375C178.825 125.285 178.819 125.191 178.832 125.098C178.832 124.719 179.604 115.785 184.322 115.785C189.04 115.785 189.148 124.38 189.148 124.75C189.148 124.932 189.076 125.107 188.947 125.236C188.818 125.365 188.643 125.437 188.461 125.437C188.279 125.437 188.104 125.365 187.975 125.236C187.846 125.107 187.774 124.932 187.774 124.75C187.774 124.673 187.673 117.167 184.33 117.167C181.457 117.167 180.384 122.966 180.214 125.206C180.206 125.385 180.129 125.554 180 125.677C179.87 125.801 179.698 125.87 179.519 125.87Z" fill="#263238"/>
<path d="M179.519 124.65C179.519 124.65 179.519 131.322 179.782 132.65C180.044 133.978 183.388 136.789 187.388 138.526" stroke="#263238" stroke-width="2" stroke-linecap="round" stroke-linejoin="round"/>
<path d="M188.191 123.816C188.191 123.816 188.453 130.488 187.125 133.422C185.797 136.356 181.789 137.561 180.052 138.225" stroke="#263238" stroke-width="2" stroke-linecap="round" stroke-linejoin="round"/>
<path d="M189.256 138.789C189.232 138.487 189.095 138.205 188.873 138C188.65 137.794 188.358 137.68 188.056 137.68C187.753 137.68 187.461 137.794 187.239 138C187.016 138.205 186.879 138.487 186.855 138.789C186.842 138.954 186.863 139.121 186.917 139.278C186.971 139.436 187.058 139.58 187.17 139.702C187.283 139.824 187.42 139.922 187.572 139.989C187.725 140.055 187.889 140.09 188.056 140.09C188.222 140.09 188.386 140.055 188.539 139.989C188.691 139.922 188.828 139.824 188.941 139.702C189.054 139.58 189.14 139.436 189.194 139.278C189.248 139.121 189.27 138.954 189.256 138.789Z" fill="white" stroke="#263238" stroke-linecap="round" stroke-linejoin="round"/>
<path d="M180.986 138.526C180.988 138.287 180.918 138.054 180.787 137.855C180.655 137.656 180.468 137.5 180.248 137.408C180.028 137.315 179.785 137.29 179.551 137.336C179.317 137.382 179.102 137.496 178.932 137.664C178.763 137.832 178.648 138.047 178.601 138.28C178.554 138.514 178.577 138.757 178.668 138.978C178.759 139.198 178.913 139.387 179.111 139.519C179.31 139.652 179.543 139.723 179.781 139.723C180.1 139.723 180.405 139.597 180.631 139.373C180.856 139.149 180.984 138.844 180.986 138.526Z" fill="white" stroke="#263238" stroke-linecap="round" stroke-linejoin="round"/>
<path d="M204.6 128.117C204.601 127.298 204.36 126.496 203.905 125.815C203.451 125.133 202.805 124.601 202.048 124.287C201.292 123.973 200.459 123.89 199.655 124.049C198.852 124.209 198.113 124.603 197.534 125.183C196.955 125.762 196.561 126.5 196.401 127.304C196.242 128.107 196.324 128.94 196.638 129.697C196.953 130.453 197.484 131.1 198.166 131.554C198.848 132.008 199.649 132.25 200.469 132.248C201.564 132.246 202.613 131.81 203.388 131.036C204.162 130.262 204.598 129.212 204.6 128.117Z" fill="white" stroke="#263238" stroke-linecap="round" stroke-linejoin="round"/>
<path d="M202.731 128.117C202.731 127.668 202.598 127.228 202.348 126.855C202.098 126.481 201.743 126.19 201.328 126.019C200.912 125.847 200.456 125.803 200.015 125.891C199.574 125.979 199.17 126.196 198.853 126.514C198.536 126.833 198.32 127.238 198.233 127.679C198.147 128.12 198.193 128.576 198.366 128.991C198.539 129.406 198.831 129.76 199.205 130.008C199.579 130.257 200.019 130.389 200.469 130.387C201.069 130.385 201.645 130.145 202.069 129.719C202.493 129.294 202.731 128.718 202.731 128.117Z" fill="white" stroke="#263238" stroke-linecap="round" stroke-linejoin="round"/>
<path d="M202.731 71.4073C202.731 71.4073 191.125 75.9401 189.658 76.7123C189.026 77.094 188.356 77.4072 187.658 77.6466C187.658 77.6466 188.322 87.7855 188.592 90.4573C188.863 93.1291 193.125 95.6618 196.862 95.5306C200.6 95.3993 203.665 93.3916 204.337 92.1947C205.009 90.9978 206.87 87.3917 206.87 87.3917C206.87 87.3917 211.272 86.6195 211.503 82.7199C211.735 78.8204 210.438 79.6312 208.97 80.4497C207.503 81.2682 206.7 81.7856 206.7 81.7856C206.986 80.3701 206.747 78.8992 206.028 77.6466C204.87 75.6776 203.001 73.276 202.731 71.4073Z" fill="white" stroke="#263238" stroke-linecap="round" stroke-linejoin="round"/>
<path d="M193.264 83.8164C193.264 83.8164 194.33 85.4148 195.264 85.2836" stroke="#263238" stroke-linecap="round" stroke-linejoin="round"/>
<path d="M192.862 86.2179C192.862 86.2179 195.125 88.3569 199.04 86.6194" stroke="#263238" stroke-linecap="round" stroke-linejoin="round"/>
<path d="M198.6 80.6118C198.6 80.6118 201.333 79.4149 202.87 81.5462" stroke="#263238" stroke-width="1.5" stroke-linecap="round" stroke-linejoin="round"/>
<path d="M193.264 80.3492C193.264 80.3492 191.125 79.0133 189.527 80.0789" stroke="#263238" stroke-width="1.5" stroke-linecap="round" stroke-linejoin="round"/>
<path d="M194.832 79.8474C194.833 80.5933 194.613 81.3229 194.2 81.9438C193.786 82.5647 193.198 83.0489 192.509 83.3351C191.82 83.6212 191.062 83.6965 190.33 83.5513C189.598 83.4062 188.926 83.0471 188.399 82.5197C187.871 81.9922 187.512 81.32 187.367 80.5883C187.222 79.8566 187.297 79.0983 187.583 78.4095C187.869 77.7206 188.354 77.1321 188.974 76.7186C189.595 76.3052 190.325 76.0853 191.071 76.0868C192.068 76.0888 193.023 76.4857 193.728 77.1905C194.433 77.8953 194.829 78.8506 194.832 79.8474Z" stroke="#263238" stroke-linecap="round" stroke-linejoin="round"/>
<path d="M204.214 80.9052C204.215 81.6508 203.996 82.3802 203.582 83.0009C203.169 83.6216 202.581 84.1058 201.893 84.3922C201.204 84.6786 200.446 84.7543 199.715 84.6098C198.984 84.4652 198.311 84.1069 197.784 83.5803C197.256 83.0536 196.896 82.3821 196.75 81.6509C196.604 80.9198 196.678 80.1617 196.963 79.4727C197.248 78.7837 197.731 78.1947 198.351 77.7803C198.971 77.3659 199.7 77.1447 200.445 77.1447C201.443 77.1467 202.399 77.5433 203.105 78.2479C203.811 78.9525 204.21 79.9078 204.214 80.9052V80.9052Z" stroke="#263238" stroke-linecap="round" stroke-linejoin="round"/>
<path d="M194.832 79.8474C195.101 79.7561 195.39 79.7388 195.668 79.7972C195.947 79.8556 196.204 79.9876 196.415 80.1794" stroke="#263238" stroke-linecap="round" stroke-linejoin="round"/>
<path d="M204.345 81.4998L208.044 80.9747" stroke="#263238" stroke-linecap="round" stroke-linejoin="round"/>
<path d="M47.4668 260.787C46.444 262.959 45.1855 265.013 43.714 266.91C41.4824 269.652 40.9187 271.605 43.3433 273.304C45.768 275.003 50.1849 274.74 52.4089 271.999C54.6328 269.258 58.2157 261.698 58.2157 261.698C58.2157 261.698 50.4012 259.351 47.4668 260.787Z" fill="white" stroke="#263238" stroke-linecap="round" stroke-linejoin="round"/>
<path d="M74.6634 262.478C74.6634 262.478 78.5243 267.567 80.8409 270.2C83.1575 272.833 87.5358 274.107 89.8755 273.976C92.2152 273.845 95.5743 273.065 93.304 268.895C91.0338 264.725 86.2925 260.679 86.2925 260.679C86.2925 260.679 81.3351 260.679 77.9297 260.285C74.5244 259.891 74.4935 261.698 74.6634 262.478Z" fill="white" stroke="#263238" stroke-linecap="round" stroke-linejoin="round"/>
<path d="M49.598 166.634C49.598 166.634 48.0536 184.394 48.5787 196.888C49.1038 209.382 46.8026 234.316 46.0304 240.417C45.2583 246.517 46.7331 256.586 46.8026 258.802C46.8721 261.019 46.9494 262.2 46.9494 262.2C46.9494 262.2 48.0922 261.428 52.3006 262.2C54.2005 262.606 56.1291 262.864 58.0689 262.972C59.8051 260.035 61.2409 256.931 62.3545 253.706C63.6132 249.536 62.9028 245.212 62.8024 243.011C62.702 240.81 62.3391 238.448 62.5862 238.054C62.8333 237.66 67.9915 200.371 68.2695 192.155C68.5855 186.585 69.4126 181.056 70.7405 175.638C70.7405 175.638 73.2038 187.112 73.3969 191.545C73.5899 195.977 72.9567 232.1 73.2733 239.421C73.5899 246.741 73.0262 248.687 72.1923 250.509C71.3583 252.332 71.6594 253.243 72.2463 254.679C72.8332 256.115 74.6787 262.501 74.6787 262.501C74.6787 262.501 84.0917 263.026 85.3658 262.37C86.6399 261.714 87.1341 261.073 87.111 260.679C87.0878 260.285 91.6437 250.895 91.2113 246.988C90.7789 243.081 90.2847 243.729 89.8445 236.687C89.4044 229.645 92.2846 170.279 92.2769 167.19C92.2692 164.101 91.7518 170.055 72.5552 166.418C53.3585 162.781 50.1462 164.155 49.598 166.634Z" fill="#D3EEFE" stroke="#263238" stroke-linecap="round" stroke-linejoin="round"/>
<path d="M75.2194 257.405C75.2194 257.405 81.2502 252.185 86.2771 250.88L75.2194 257.405Z" fill="white"/>
<path d="M75.2194 257.405C75.2194 257.405 81.2502 252.185 86.2771 250.88" stroke="#263238" stroke-linecap="round" stroke-linejoin="round"/>
<path d="M50.5941 254.918C50.5941 254.918 58.1307 251.266 60.3083 250.355L50.5941 254.918Z" fill="white"/>
<path d="M50.5941 254.918C50.5941 254.918 58.1307 251.266 60.3083 250.355" stroke="#263238" stroke-linecap="round" stroke-linejoin="round"/>
<path d="M63.2426 70.1409C63.2426 70.1409 61.2195 65.5773 59.7214 67.1448C58.2234 68.7124 59.3585 70.7895 61.4203 73.2683C63.482 75.747 65.1113 74.1795 64.6789 73.137C64.2465 72.0945 63.2426 70.1409 63.2426 70.1409Z" fill="white" stroke="#263238" stroke-linecap="round" stroke-linejoin="round"/>
<path d="M82.8254 67.6621C82.8254 67.6621 84.8486 63.2298 86.501 65.3456C88.1535 67.4614 84.6015 72.6505 83.7289 73.5617C82.8563 74.4729 82.2926 67.5617 82.2926 67.5617L82.8254 67.6621Z" fill="white" stroke="#263238" stroke-linecap="round" stroke-linejoin="round"/>
<path d="M38.9032 124.781C38.9032 124.781 38.3395 132.866 37.6522 134.951C36.2493 139.865 35.5933 144.961 35.7063 150.07C35.9766 156.194 38.3781 169.499 38.4244 173.537C38.4708 177.576 37.2121 178.495 38.5634 179.537C39.9148 180.58 42.7873 183.715 43.8298 183.715C44.8722 183.715 46.4629 184.232 46.4243 183.452C46.3857 182.672 45.8761 182.796 45.4359 181.753C44.874 180.234 44.4148 178.678 44.0614 177.097C44.3786 175.946 44.7627 174.814 45.212 173.707C45.212 173.707 46.1386 176.966 46.3162 178.016C46.4938 179.066 47.9455 179.444 47.8606 177.491C47.7757 175.537 47.737 174.75 47.6444 172.665C47.5517 170.58 45.907 168.757 45.212 167.707C44.517 166.657 43.9688 166.016 43.9456 165.622C43.9224 165.228 46.1927 151.414 46.2622 146.588C46.3317 141.762 46.4012 137.847 46.7486 136.935C47.0961 136.024 48.8258 127.808 48.8258 127.808L38.9032 124.781Z" fill="white" stroke="#263238" stroke-linecap="round" stroke-linejoin="round"/>
<path d="M103.396 125.167C103.396 125.167 103.952 133.298 104.647 135.445C106.034 140.423 106.687 145.576 106.586 150.742C106.315 156.85 103.898 169.939 103.852 173.977C103.806 178.016 105.072 179.035 103.721 179.962C102.369 180.888 99.4892 183.761 98.4468 183.676C97.4043 183.591 95.8213 183.962 95.8522 183.182C95.8831 182.402 96.4004 182.58 96.8406 181.576C97.4111 180.087 97.873 178.56 98.2228 177.004C97.9031 175.817 97.5164 174.65 97.0645 173.506C97.0645 173.506 96.1379 176.688 95.9603 177.715C95.7827 178.742 94.3387 179.004 94.4159 177.058C94.4931 175.113 94.5317 174.333 94.6244 172.255C94.7171 170.178 96.3618 168.495 97.0645 167.514C97.7672 166.533 98.3078 165.923 98.3309 165.537C98.3541 165.151 96.0838 151.128 96.0143 146.294C95.9449 141.46 95.8831 137.545 95.5279 136.603C95.1727 135.661 93.4507 127.291 93.4507 127.291L103.396 125.167Z" fill="white" stroke="#263238" stroke-linecap="round" stroke-linejoin="round"/>
<path d="M67.4202 85.1368C67.4202 85.1368 60.0072 88.658 55.5285 90.6117C51.0498 92.5653 45.4205 94.9127 45.49 95.8317C45.5595 96.7506 40.7179 114.997 39.1889 118.781C37.66 122.565 36.2314 125.561 36.2314 125.561C36.2314 125.561 41.7063 129.221 45.2584 129.993C47.5476 130.478 49.8712 130.783 52.2081 130.905L47.9842 168.464C47.9842 168.464 56.4783 171.854 69.7831 171.985C78.0385 172.046 86.2901 171.61 94.4932 170.68C94.4932 170.68 95.7442 139.792 95.6129 136.773C95.5223 135.119 95.5817 133.459 95.7905 131.816C97.8171 132.258 99.9234 132.17 101.906 131.561C103.65 130.912 105.359 130.172 107.026 129.345C107.026 129.345 100.547 103.523 99.4816 100.001C98.4159 96.4803 98.9101 95.9629 97.9835 95.5691C97.0569 95.1753 86.8176 90.7429 83.4741 88.7893C80.1305 86.8356 78.8409 86.8279 75.9143 85.9167C72.9877 85.0056 68.926 83.8318 67.4202 85.1368Z" fill="#D3EEFE" stroke="#263238" stroke-linecap="round" stroke-linejoin="round"/>
<path d="M95.8059 131.816L94.1534 108.658" stroke="#263238" stroke-linecap="round" stroke-linejoin="round"/>
<path d="M52.5169 143.947L66.98 143.553C66.98 143.553 66.3391 161.684 65.8989 163.63C65.4588 165.576 62.5244 166.889 58.733 166.757C54.9415 166.626 52.6481 164.804 52.2157 163.892" stroke="#263238" stroke-linecap="round" stroke-linejoin="round"/>
<path d="M51.7061 146.294L66.9568 146.163" stroke="#263238" stroke-linecap="round" stroke-linejoin="round"/>
<path d="M91.8599 166.765C90.4391 167.159 87.0492 167.159 86.3079 165.074C85.5666 162.989 86.0531 144.341 86.0531 144.341L93.497 144.596" stroke="#263238" stroke-linecap="round" stroke-linejoin="round"/>
<path d="M85.9913 145.901L93.0723 146.943" stroke="#263238" stroke-linecap="round" stroke-linejoin="round"/>
<path d="M52.208 130.905C52.208 130.905 52.7331 113.044 52.5246 108.349" stroke="#263238" stroke-linecap="round" stroke-linejoin="round"/>
<path d="M65.2117 76.3956C65.2117 76.3956 66.3391 87.2063 66.3854 88.3955C66.4317 89.5846 67.7522 92.8278 69.0031 94.5267C70.2541 96.2255 73.7521 101.7 75.142 100.65C76.532 99.6 80.447 93.739 80.8254 90.4804C81.2037 87.2217 81.3891 79.5307 81.3891 79.5307C81.3891 79.5307 76.3158 79.7933 72.4703 78.4883C68.6248 77.1833 65.2117 76.3956 65.2117 76.3956Z" fill="white" stroke="#263238" stroke-linecap="round" stroke-linejoin="round"/>
<path d="M59.8063 60.226L62.6866 69.361C62.6866 69.361 63.7677 76.1408 65.7136 78.8744C67.6595 81.6079 74.478 85.5307 77.5744 84.743C80.6709 83.9554 84.3234 81.0906 84.1844 77.9632C84.0454 74.8358 83.4122 65.7085 83.4971 62.1874C83.5821 58.6662 82.7249 51.4925 80.5937 49.5389C78.4625 47.5852 71.3274 46.4038 66.2078 48.4964C61.0882 50.5891 57.6133 54.4886 59.8063 60.226Z" fill="#263238" stroke="#263238" stroke-linecap="round" stroke-linejoin="round"/>
<path d="M62.8488 70.1409C62.8488 70.1409 62.594 70.2722 63.2658 67.6622C63.9376 65.0522 65.9607 63.7472 66.1615 62.4499C66.3623 61.1526 63.6133 60.7511 63.9144 58.7974C64.2156 56.8438 66.9028 55.4075 72.6093 54.7511C78.3158 54.0948 82.115 57.4924 81.9296 59.1835C81.7443 60.8746 81.2347 61.1449 82.0686 62.3186C82.9026 63.4923 83.2578 65.7085 83.3196 67.0135C83.3813 68.3185 84.0918 73.0057 82.8563 74.442C81.6208 75.8783 80.6941 75.6157 79.4663 74.442C78.2386 73.2683 77.783 71.7085 75.0494 71.7085C72.3159 71.7085 71.4433 72.7509 70.9645 73.7934C70.4858 74.8358 70.0225 76.1099 68.4626 76.1099C66.9028 76.1099 65.7909 74.6737 64.6789 73.1061C64.0013 72.161 63.3898 71.1703 62.8488 70.1409Z" fill="white" stroke="#263238" stroke-linecap="round" stroke-linejoin="round"/>
<path d="M74.6015 63.7472C74.6015 63.7472 77.1266 70.7896 77.0185 71.3146C76.9104 71.8397 75.6749 73.3996 74.2309 73.2683C72.7869 73.137 72.0687 71.4459 72.0687 71.4459" stroke="#263238" stroke-linecap="round" stroke-linejoin="round"/>
<path d="M75.3119 62.8129C75.2429 62.5772 75.228 62.3289 75.2684 62.0866C75.3089 61.8444 75.4035 61.6144 75.5454 61.4139C75.6872 61.2134 75.8726 61.0475 76.0875 60.9288C76.3025 60.81 76.5416 60.7413 76.7868 60.728C77.5937 60.6888 78.3998 60.8199 79.1528 61.1125C79.9057 61.4052 80.5887 61.853 81.1574 62.4268" stroke="#263238" stroke-width="2" stroke-linecap="round" stroke-linejoin="round"/>
<path d="M71.5128 62.0406C71.1401 61.7636 70.7106 61.5727 70.2552 61.4819C69.7999 61.3911 69.33 61.4026 68.8796 61.5155C67.3352 61.9094 65.4742 64.2568 65.4974 64.6506" stroke="#263238" stroke-width="2" stroke-linecap="round" stroke-linejoin="round"/>
<path d="M71.0109 65.8397C71.0109 66.4884 70.7406 67.0135 70.3391 67.0135C69.9375 67.0135 69.5669 66.4884 69.5669 65.8397C69.5669 65.1911 69.8372 64.666 70.231 64.666C70.6248 64.666 70.98 65.1911 71.0109 65.8397Z" fill="#263238"/>
<path d="M78.5552 65.4459C78.5552 66.0946 78.2849 66.6197 77.8911 66.6197C77.4973 66.6197 77.1189 66.0946 77.1189 65.4459C77.1189 64.7973 77.3892 64.2722 77.783 64.2722C78.1768 64.2722 78.5243 64.7973 78.5552 65.4459Z" fill="#263238"/>
<path d="M71.8525 76.1408C71.8525 76.1408 74.3776 77.3145 78.2154 75.6157" stroke="white" stroke-width="2" stroke-linecap="round" stroke-linejoin="round"/>
<path d="M62.5631 87.5229C62.5631 87.5229 66.4241 100.82 70.5707 109.561C74.7174 118.302 78.0069 124.426 78.0069 124.426C78.0069 124.426 84.2539 103.43 84.223 96.6271C84.1922 89.8241 84.1535 89.0673 84.1535 89.0673" stroke="#263238" stroke-linecap="round" stroke-linejoin="round"/>
<path d="M82.6323 137.684H74.6711L74.0919 124.387H82.0455L82.6323 137.684Z" fill="white" stroke="#263238" stroke-linecap="round" stroke-linejoin="round"/>
<path d="M141.118 266.524C141.118 266.524 145.288 269.914 148.284 270.825C151.28 271.737 152.847 272.262 152.199 273.698C151.55 275.134 149.458 275.652 143.334 275.783C137.211 275.914 136.029 274.609 133.682 273.953C131.334 273.296 128.076 273.953 127.033 272.655C125.991 271.358 126.377 269.389 126.377 267.304C126.377 265.219 135.381 264.308 137.728 265.088C138.906 265.444 140.043 265.925 141.118 266.524Z" fill="white" stroke="#263238" stroke-linecap="round" stroke-linejoin="round"/>
<path d="M129.249 269.134C129.249 269.134 133.164 273.304 136.423 275.126C139.682 276.949 141.504 278.262 140.724 279.173C139.944 280.084 137.466 281.258 130.941 280.609C124.416 279.96 123.118 278.516 119.991 276.3C116.863 274.084 115.427 274.347 114.385 273.173C113.342 271.999 113.342 269.389 113.342 269.389L129.249 269.134Z" fill="white" stroke="#263238" stroke-linecap="round" stroke-linejoin="round"/>
<path d="M148.809 172.634C148.809 172.634 146.492 203.668 145.55 209.274C144.608 214.88 143.72 218.015 143.851 221.923C143.983 225.83 145.157 237.05 142.809 243.706C140.462 250.362 140.492 258.439 140.724 260.787C140.956 263.134 141.767 266.262 141.635 266.787C141.504 267.312 137.728 269.389 134.987 269.914C133.264 270.231 131.518 270.404 129.767 270.432C127.114 271.368 124.358 271.983 121.558 272.262C117.643 272.524 112.292 271.35 112.292 271.35C112.292 271.35 112.292 261.698 111.767 255.436C111.242 249.173 109.45 239.142 111.636 231.575C113.821 224.007 113.335 219.992 113.18 217.49C113.026 214.988 113.18 203.799 113.049 203.405C112.918 203.012 112.138 170.417 112.138 170.417C112.138 170.417 126.346 172.502 135.867 171.591C145.388 170.68 147.867 170.68 147.867 170.68C147.867 170.68 149.983 168.333 148.809 172.634Z" fill="#263238" stroke="#263238" stroke-linecap="round" stroke-linejoin="round"/>
<path d="M130.423 268.609C130.416 266.498 130.157 264.396 129.651 262.347C128.879 259.744 128.732 250.486 129.126 246.702C129.52 242.918 131.442 233.405 131.442 228.054C131.442 222.703 131.967 214.494 131.967 214.494" stroke="white" stroke-linecap="round" stroke-linejoin="round"/>
<path d="M157.411 211.621L142.554 211.49C141.906 211.49 141.906 201.583 141.906 201.583L157.411 211.621Z" fill="white" stroke="#263238" stroke-linecap="round" stroke-linejoin="round"/>
<path d="M125.991 174.464C125.991 174.464 140.855 175.375 149.203 173.939L146.33 103.785C146.33 103.785 144.377 100.527 139.157 98.6965C133.937 96.8664 127.682 99.4686 125.466 101.955C123.249 104.442 124.817 174.201 124.817 174.201L125.991 174.464Z" fill="#D3EEFE" stroke="#263238" stroke-linecap="round" stroke-linejoin="round"/>
<path d="M126.639 98.6964C126.639 98.6964 111.906 106.133 109.69 107.438C107.474 108.743 107.373 113.43 107.373 115.654C107.373 117.878 108.022 216.579 108.022 216.579C113.599 216.943 119.197 216.372 124.585 214.888C129.899 213.497 134.899 211.107 139.319 207.846L136.84 154.773L134.06 108.218C134.06 108.218 132.377 95.3065 126.639 98.6964Z" fill="white" stroke="#263238" stroke-linecap="round" stroke-linejoin="round"/>
<path d="M131.072 93.8702C131.072 93.8702 127.682 94.2641 126.246 96.1868C125.404 97.3212 124.785 98.6052 124.423 99.9705L123.118 111.708L127.551 110.665L125.334 115.878C125.334 115.878 127.551 122.403 130.029 127.877C132.508 133.352 136.16 144.565 136.16 144.565L134.462 109.492C134.462 109.492 134.462 99.3219 133.689 97.1366C132.917 94.9513 132.114 93.8702 131.072 93.8702Z" fill="white" stroke="#263238" stroke-linecap="round" stroke-linejoin="round"/>
<path d="M139.55 101.044L142.16 207.32L157.411 211.621L155.195 130.65C155.195 130.65 155.589 109.8 154.284 106.912C152.979 104.024 141.249 98.179 140.075 98.3334C138.902 98.4879 139.55 101.044 139.55 101.044Z" fill="white" stroke="#263238" stroke-linecap="round" stroke-linejoin="round"/>
<path d="M139.55 95.7003C140.5 95.9318 141.388 96.3664 142.153 96.9744C142.918 97.5823 143.543 98.3489 143.983 99.2215C145.288 102.086 148.678 110.959 148.678 110.959L144.377 111.476L148.94 114.735L140.855 145.12L139.944 112.233L139.172 98.6733C139.172 98.6733 138.245 96.4802 139.55 95.7003Z" fill="white" stroke="#263238" stroke-linecap="round" stroke-linejoin="round"/>
<path d="M130.029 89.4379C130.029 89.4379 130.554 93.2216 129.767 95.3065C128.979 97.3914 132.245 103.916 133.55 107.955C134.855 111.994 136.16 115.26 136.94 114.866C137.72 114.472 140.462 99.2215 140.33 97.2602C140.199 95.2988 141.504 89.4379 141.504 89.4379C141.504 89.4379 134.33 91.5228 130.029 89.4379Z" fill="white" stroke="#263238" stroke-linecap="round" stroke-linejoin="round"/>
<path d="M120.871 85.461C124.978 85.461 128.307 81.9831 128.307 77.6928C128.307 73.4025 124.978 69.9246 120.871 69.9246C116.764 69.9246 113.435 73.4025 113.435 77.6928C113.435 81.9831 116.764 85.461 120.871 85.461Z" fill="#263238" stroke="#263238" stroke-linecap="round" stroke-linejoin="round"/>
<path d="M124.686 81.3453C124.686 81.3453 123.381 77.9554 121.813 79.2604C120.246 80.5654 121.813 83.4302 122.987 85.129C124.161 86.8279 126.377 86.0402 126.122 84.3568C125.911 83.2458 125.416 82.2083 124.686 81.3453Z" fill="white" stroke="#263238" stroke-linecap="round" stroke-linejoin="round"/>
<path d="M144.871 79.2373C144.871 79.2373 145.527 75.9786 146.415 78.1948C146.808 79.0629 146.989 80.012 146.944 80.9639C146.898 81.9157 146.627 82.8431 146.153 83.6696C145.38 84.9746 145.504 84.8434 145.241 83.6696C145.036 82.2002 144.912 80.7204 144.871 79.2373Z" fill="white" stroke="#263238" stroke-linecap="round" stroke-linejoin="round"/>
<path d="M122.856 75.0674C122.856 75.0674 125.334 87.0596 126.902 89.9321C128.469 92.8047 133.682 97.654 138.377 95.6695C143.072 93.685 145.682 90.0634 145.682 85.631C145.682 81.1986 146.33 75.5925 145.55 70.7586C145.157 68.5576 144.024 66.5567 142.339 65.0866C140.654 63.6166 138.518 62.7654 136.284 62.6738C132.106 62.5425 125.589 64.89 124.284 69.0675C123.608 71.0144 123.129 73.0246 122.856 75.0674Z" fill="white" stroke="#263238" stroke-linecap="round" stroke-linejoin="round"/>
<path d="M122.987 79.4998C122.987 79.4998 130.292 76.6272 134.987 73.106C139.682 69.5849 141.118 66.9826 141.118 66.9826C141.118 66.9826 143.334 72.9748 144.245 74.9361C145.156 76.8975 145.936 79.106 145.936 79.106C145.936 79.106 147.373 76.6272 147.373 71.3841C147.373 66.1409 145.936 61.9942 140.423 59.253C134.91 56.5117 125.952 58.2105 121.89 62.1255C117.829 66.0405 118.632 72.4265 119.674 74.9053C120.49 76.6253 121.613 78.1823 122.987 79.4998Z" fill="#263238" stroke="#263238" stroke-linecap="round" stroke-linejoin="round"/>
<path d="M139.157 74.6736C139.157 74.6736 138.384 74.8049 138.384 77.1523C138.384 79.4998 139.157 83.4071 139.033 83.9321C138.909 84.4572 137.489 86.0171 136.562 85.1059" stroke="#263238" stroke-linecap="round" stroke-linejoin="round"/>
<path d="M133.288 87.4534C133.288 87.4534 136.678 88.8897 141.01 86.2797" stroke="#263238" stroke-linecap="round" stroke-linejoin="round"/>
<path d="M139.682 74.3957C139.682 74.3957 142.431 73.3455 144.245 74.9207" stroke="#263238" stroke-linecap="round" stroke-linejoin="round"/>
<path d="M135.118 74.9361C133.925 74.5816 132.664 74.515 131.44 74.7418C130.216 74.9687 129.063 75.4825 128.076 76.2411" stroke="#263238" stroke-linecap="round" stroke-linejoin="round"/>
<path d="M133.288 78.7121C133.288 79.4843 132.971 80.1484 132.578 80.1484C132.184 80.1484 131.859 79.5075 131.859 78.7121C131.859 77.9168 132.176 77.2836 132.578 77.2836C132.979 77.2836 133.288 77.9245 133.288 78.7121Z" fill="#263238"/>
<path d="M141.782 78.1948C141.782 78.967 141.458 79.6311 141.064 79.6311C140.67 79.6311 140.346 78.9902 140.346 78.1948C140.346 77.3995 140.67 76.7585 141.064 76.7585C141.458 76.7585 141.782 77.3995 141.782 78.1948Z" fill="#263238"/>
<path d="M150.114 131.036L147.797 127.252C147.141 126.21 144.145 126.603 142.709 126.603C141.962 126.681 141.244 126.931 140.61 127.333C139.977 127.735 139.445 128.278 139.056 128.92C138.539 129.962 136.191 131.661 137.102 132.704C138.014 133.746 140.492 133.09 140.886 133.352C141.28 133.615 144.539 135.831 145.712 136.225C146.337 136.454 147.004 136.541 147.666 136.48L150.114 131.036Z" stroke="#263238" stroke-linecap="round" stroke-linejoin="round"/>
<path d="M153.635 106.133C154.947 106.738 156.12 107.605 157.084 108.681C158.049 109.756 158.782 111.018 159.241 112.387C160.677 116.951 165.496 147.337 164.453 150.225C163.411 153.113 160.809 155.306 156.245 153.746C151.681 152.186 144.662 144.742 144.662 144.742L150.137 131.051L154.438 133.267L153.527 121.013" fill="white"/>
<path d="M153.635 106.133C154.947 106.738 156.12 107.605 157.084 108.681C158.049 109.756 158.782 111.018 159.241 112.387C160.677 116.951 165.496 147.337 164.453 150.225C163.411 153.113 160.809 155.306 156.245 153.746C151.681 152.186 144.662 144.742 144.662 144.742L150.137 131.051L154.438 133.267L153.527 121.013" stroke="#263238" stroke-linecap="round" stroke-linejoin="round"/>
<path d="M154.415 133.252C154.415 133.252 161.326 137.298 161.983 138.735" stroke="#263238" stroke-linecap="round" stroke-linejoin="round"/>
<path d="M145.674 114.997H120.508V150.209H145.674V114.997Z" fill="#263238" stroke="#263238" stroke-linecap="round" stroke-linejoin="round"/>
<path d="M131.859 139.514C131.859 139.514 136.678 136.904 138.114 135.468C139.55 134.032 139.813 133.924 140.593 133.924C142.512 133.923 144.429 133.792 146.33 133.53C147.102 133.267 146.724 135.074 146.33 135.484C145.936 135.893 143.465 136.403 143.465 136.403C143.465 136.403 147.635 136.009 147.766 137.314C147.86 137.688 147.848 138.081 147.732 138.449C147.616 138.817 147.401 139.145 147.11 139.399L146.724 139.792C146.724 139.792 147.11 142.526 146.724 143.831C146.338 145.136 145.55 145.53 143.851 145.785C141.584 145.929 139.308 145.8 137.072 145.399C135.767 145.136 131.334 146.047 131.334 146.047L131.859 139.514Z" fill="white" stroke="#263238" stroke-linecap="round" stroke-linejoin="round"/>
<path d="M114.516 105.09C114.516 105.09 106.794 106.781 105.512 107.561C104.23 108.341 99.9061 139.383 98.9949 144.626C98.0838 149.87 107.08 150.889 109.806 151.931C112.531 152.974 132.516 154.51 132.516 154.51L132.778 138.341L118.956 134.82L118.825 112.519" fill="white"/>
<path d="M114.516 105.09C114.516 105.09 106.794 106.781 105.512 107.561C104.23 108.341 99.9061 139.383 98.9949 144.626C98.0838 149.87 107.08 150.889 109.806 151.931C112.531 152.974 132.516 154.51 132.516 154.51L132.778 138.341L118.956 134.82L118.825 112.519" stroke="#263238" stroke-linecap="round" stroke-linejoin="round"/>
<path d="M118.948 134.819C118.948 134.819 114.122 132.603 110.995 133.777C107.867 134.951 105.257 140.951 105.257 140.951" stroke="#263238" stroke-linecap="round" stroke-linejoin="round"/>
<path d="M113.597 133.252C113.597 133.252 109.033 132.989 106.817 133.908C105.454 134.485 104.247 135.377 103.296 136.511" stroke="#263238" stroke-linecap="round" stroke-linejoin="round"/>
<path d="M138.377 113.824H129.512V116.696H138.377V113.824Z" fill="white" stroke="#263238" stroke-linecap="round" stroke-linejoin="round"/>
</svg>
