<svg width="330" height="339" viewBox="0 0 330 339" fill="none" xmlns="http://www.w3.org/2000/svg">
<g opacity="0.3">
<path opacity="0.3" d="M70.9265 116.397H16.9926L17.5386 105.986H71.4725L70.9265 116.397Z" stroke="black" stroke-linecap="round" stroke-linejoin="round"/>
<path opacity="0.3" d="M70.9265 130.974H16.9926L17.5386 120.564H71.4725L70.9265 130.974Z" stroke="black" stroke-linecap="round" stroke-linejoin="round"/>
<path opacity="0.3" d="M70.9265 145.551H16.9926L17.5386 135.141H71.4725L70.9265 145.551Z" stroke="black" stroke-linecap="round" stroke-linejoin="round"/>
<path opacity="0.3" d="M70.9265 160.129H16.9926L17.5386 149.718H71.4725L70.9265 160.129Z" stroke="black" stroke-linecap="round" stroke-linejoin="round"/>
<path opacity="0.3" d="M70.9265 174.713H16.9926L17.5386 164.296H71.4725L70.9265 174.713Z" stroke="black" stroke-linecap="round" stroke-linejoin="round"/>
<path opacity="0.3" d="M70.9265 189.29H16.9926L17.5386 178.873H71.4725L70.9265 189.29Z" stroke="black" stroke-linecap="round" stroke-linejoin="round"/>
<path opacity="0.3" d="M70.9265 203.868H16.9926L17.5386 193.45H71.4725L70.9265 203.868Z" stroke="black" stroke-linecap="round" stroke-linejoin="round"/>
<path opacity="0.3" d="M70.9265 218.445H16.9926L17.5386 208.027H71.4725L70.9265 218.445Z" stroke="black" stroke-linecap="round" stroke-linejoin="round"/>
<path opacity="0.3" d="M70.9265 233.022H16.9926L17.5386 222.605H71.4725L70.9265 233.022Z" stroke="black" stroke-linecap="round" stroke-linejoin="round"/>
<path opacity="0.3" d="M70.9265 247.599H16.9926L17.5386 237.182H71.4725L70.9265 247.599Z" stroke="black" stroke-linecap="round" stroke-linejoin="round"/>
<path opacity="0.3" d="M70.9265 262.177H16.9926L17.5386 251.766H71.4725L70.9265 262.177Z" stroke="black" stroke-linecap="round" stroke-linejoin="round"/>
<path opacity="0.3" d="M127.957 116.397H74.0229L74.569 105.986H128.503L127.957 116.397Z" stroke="black" stroke-linecap="round" stroke-linejoin="round"/>
<path opacity="0.3" d="M127.957 130.974H74.0229L74.569 120.564H128.503L127.957 130.974Z" stroke="black" stroke-linecap="round" stroke-linejoin="round"/>
<path opacity="0.3" d="M127.957 145.551H74.0229L74.569 135.141H128.503L127.957 145.551Z" stroke="black" stroke-linecap="round" stroke-linejoin="round"/>
<path opacity="0.3" d="M127.957 160.129H74.0229L74.569 149.718H128.503L127.957 160.129Z" stroke="black" stroke-linecap="round" stroke-linejoin="round"/>
<path opacity="0.3" d="M127.957 174.713H74.0229L74.569 164.296H128.503L127.957 174.713Z" stroke="black" stroke-linecap="round" stroke-linejoin="round"/>
<path opacity="0.3" d="M127.957 189.29H74.0229L74.569 178.873H128.503L127.957 189.29Z" stroke="black" stroke-linecap="round" stroke-linejoin="round"/>
<path opacity="0.3" d="M127.957 203.868H74.0229L74.569 193.45H128.503L127.957 203.868Z" stroke="black" stroke-linecap="round" stroke-linejoin="round"/>
<path opacity="0.3" d="M127.957 218.445H74.0229L74.569 208.027H128.503L127.957 218.445Z" stroke="black" stroke-linecap="round" stroke-linejoin="round"/>
<path opacity="0.3" d="M127.957 233.022H74.0229L74.569 222.605H128.503L127.957 233.022Z" stroke="black" stroke-linecap="round" stroke-linejoin="round"/>
<path opacity="0.3" d="M127.957 247.599H74.0229L74.569 237.182H128.503L127.957 247.599Z" stroke="black" stroke-linecap="round" stroke-linejoin="round"/>
<path opacity="0.3" d="M127.957 262.177H74.0229L74.569 251.766H128.503L127.957 262.177Z" stroke="black" stroke-linecap="round" stroke-linejoin="round"/>
</g>
<g opacity="0.3">
<path opacity="0.3" d="M293.796 127.173H224.178V179.843H293.796V127.173Z" stroke="black" stroke-linecap="round" stroke-linejoin="round"/>
<path opacity="0.3" d="M290.01 131.527H227.95V175.496H290.01V131.527Z" stroke="black" stroke-linecap="round" stroke-linejoin="round"/>
<path opacity="0.3" d="M248.189 138.453H269.778" stroke="black" stroke-linecap="round" stroke-linejoin="round"/>
<path opacity="0.3" d="M234.208 144.833H283.759" stroke="black" stroke-linecap="round" stroke-linejoin="round"/>
<path opacity="0.3" d="M245.25 157.585H272.717" stroke="black" stroke-linecap="round" stroke-linejoin="round"/>
<path opacity="0.3" d="M234.697 170.345H245.495" stroke="black" stroke-linecap="round" stroke-linejoin="round"/>
<path opacity="0.3" d="M272.473 170.345H283.264" stroke="black" stroke-linecap="round" stroke-linejoin="round"/>
</g>
<g opacity="0.3">
<path opacity="0.3" d="M312.698 190.95H261.459V229.717H312.698V190.95Z" stroke="black" stroke-linecap="round" stroke-linejoin="round"/>
<path opacity="0.3" d="M309.918 194.154H264.239V226.52H309.918V194.154Z" stroke="black" stroke-linecap="round" stroke-linejoin="round"/>
<path opacity="0.3" d="M279.14 199.255H295.025" stroke="black" stroke-linecap="round" stroke-linejoin="round"/>
<path opacity="0.3" d="M268.844 203.947H305.32" stroke="black" stroke-linecap="round" stroke-linejoin="round"/>
<path opacity="0.3" d="M276.97 213.337H297.194" stroke="black" stroke-linecap="round" stroke-linejoin="round"/>
<path opacity="0.3" d="M269.204 222.727H277.15" stroke="black" stroke-linecap="round" stroke-linejoin="round"/>
<path opacity="0.3" d="M297.008 222.727H304.954" stroke="black" stroke-linecap="round" stroke-linejoin="round"/>
</g>
<path d="M253.34 218.222L178.959 215.636C175.894 215.53 172.829 215.53 169.763 215.636L100.469 218.222L103.544 120.93C103.659 117.247 103.659 113.559 103.544 109.866L100.469 18.0627H253.34V218.222Z" fill="#263238" stroke="#263238" stroke-linecap="round" stroke-linejoin="round"/>
<path d="M255.797 14.6285H102.926V214.788H255.797V14.6285Z" fill="white" stroke="#263238" stroke-linecap="round" stroke-linejoin="round"/>
<path d="M245.631 69.1803H113.085V203.358H245.631V69.1803Z" fill="white" stroke="#263238" stroke-linecap="round" stroke-linejoin="round"/>
<path d="M114.328 49.1284V24.5934H121.512C122.762 24.5385 124.003 24.8214 125.105 25.4124C126.025 25.96 126.74 26.7958 127.138 27.7905C127.599 28.9931 127.819 30.2748 127.784 31.5623C127.842 32.8969 127.56 34.2242 126.965 35.4204C126.463 36.3717 125.66 37.1297 124.681 37.5757C123.585 38.0448 122.402 38.2727 121.211 38.2439H118.789V49.1284H114.328ZM118.811 35.0755H120.507C121.157 35.1053 121.806 34.9848 122.403 34.7235C122.628 34.611 122.826 34.4533 122.987 34.2605C123.148 34.0676 123.267 33.8437 123.337 33.6027C123.531 32.9283 123.618 32.2277 123.596 31.5264C123.611 30.803 123.546 30.0802 123.402 29.3711C123.352 29.1193 123.251 28.8804 123.105 28.6692C122.959 28.4579 122.772 28.2787 122.554 28.1425C121.917 27.8379 121.212 27.7018 120.507 27.7474H118.811V35.0755Z" fill="#D3EEFE"/>
<path d="M119.781 60.9612L124.717 47.9429L119.932 36.4478H124.113L127.289 44.0489L130.076 36.4478H133.956L129.207 48.7907L134.294 60.9612H130.141L126.656 52.7206L123.625 60.954L119.781 60.9612Z" fill="#D3EEFE"/>
<path d="M188.529 32.1587H245.193" stroke="#263238" stroke-linecap="round" stroke-linejoin="round"/>
<path d="M188.529 44.3866H245.193" stroke="#263238" stroke-linecap="round" stroke-linejoin="round"/>
<path d="M200.764 39.0917H245.193" stroke="#263238" stroke-linecap="round" stroke-linejoin="round"/>
<path d="M200.764 50.0983H245.193" stroke="#263238" stroke-linecap="round" stroke-linejoin="round"/>
<path d="M117.597 83.9299H162.033" stroke="#263238" stroke-linecap="round" stroke-linejoin="round"/>
<path d="M117.597 95.533H162.033" stroke="#263238" stroke-linecap="round" stroke-linejoin="round"/>
<path d="M117.597 89.929H184.865" stroke="#263238" stroke-linecap="round" stroke-linejoin="round"/>
<path d="M117.597 109.672H162.033" stroke="#263238" stroke-linecap="round" stroke-linejoin="round"/>
<path d="M117.597 121.275H162.033" stroke="#263238" stroke-linecap="round" stroke-linejoin="round"/>
<path d="M117.597 115.671H184.865" stroke="#263238" stroke-linecap="round" stroke-linejoin="round"/>
<path d="M116.648 196.123H158.771" stroke="#263238" stroke-linecap="round" stroke-linejoin="round"/>
<path d="M196.525 196.123H238.648" stroke="#263238" stroke-linecap="round" stroke-linejoin="round"/>
<path d="M122.59 149.876C120.071 151.474 118.083 153.783 116.876 156.511C115.669 159.239 115.297 162.263 115.809 165.202C116.32 168.141 117.691 170.862 119.748 173.022C121.806 175.182 124.457 176.684 127.368 177.337C130.279 177.99 133.317 177.766 136.101 176.693C138.884 175.62 141.287 173.746 143.005 171.307C144.723 168.869 145.681 165.976 145.755 162.994C145.83 160.012 145.019 157.075 143.425 154.553C142.365 152.877 140.985 151.426 139.364 150.284C137.743 149.141 135.912 148.329 133.977 147.895C132.042 147.461 130.04 147.412 128.086 147.752C126.132 148.092 124.265 148.814 122.59 149.876ZM137.067 172.701C135.076 173.963 132.755 174.606 130.399 174.549C128.042 174.492 125.756 173.737 123.828 172.381C121.9 171.024 120.418 169.127 119.569 166.928C118.72 164.729 118.541 162.328 119.057 160.028C119.572 157.728 120.758 155.632 122.464 154.006C124.17 152.379 126.32 151.295 128.642 150.891C130.964 150.486 133.354 150.78 135.51 151.733C137.665 152.687 139.49 154.258 140.752 156.249C141.591 157.571 142.161 159.045 142.43 160.588C142.698 162.13 142.66 163.711 142.318 165.239C141.976 166.767 141.336 168.212 140.435 169.492C139.534 170.773 138.389 171.863 137.067 172.701Z" fill="#D3EEFE"/>
<path d="M136.286 157.721L123.438 165.861L124.749 167.931L137.597 159.79L136.286 157.721Z" fill="#D3EEFE"/>
<path d="M123.395 191.381C123.395 191.381 123.603 196.166 129.861 187.631C136.118 179.096 135.278 179.728 133.611 184.513C132.334 187.825 130.644 190.963 128.582 193.852C128.582 193.852 136.082 181.984 136.082 185.31C136.082 188.637 128.999 202.804 130.457 201.554C131.915 200.304 136.499 194.061 136.499 194.061C136.499 194.061 135.874 198.221 137.534 196.345C139.193 194.47 141.076 190.727 140.867 192.811C140.659 194.894 137.95 197.387 140.659 194.894C143.367 192.401 145.451 189.269 144.826 191.561C144.201 193.852 142.534 194.686 144.201 193.852C145.868 193.019 155.236 177.4 152.319 179.275C149.402 181.15 143.993 197.387 146.493 196.137C148.993 194.887 151.903 188.644 151.694 191.769C151.486 194.894 152.319 194.894 153.131 193.852" stroke="#263238" stroke-linecap="round" stroke-linejoin="round"/>
<path d="M329 323.036H1" stroke="#263238" stroke-linecap="round" stroke-linejoin="round"/>
<path d="M329 329.905H1" stroke="#263238" stroke-linecap="round" stroke-linejoin="round"/>
<path d="M311.032 247.276H241.486C240.388 247.275 239.328 247.67 238.498 248.388C237.668 249.105 237.124 250.098 236.967 251.184L226.564 322.311H309.264L315.579 252.233C315.634 251.603 315.557 250.968 315.354 250.369C315.15 249.77 314.824 249.22 314.396 248.754C313.968 248.288 313.448 247.916 312.869 247.661C312.29 247.407 311.664 247.276 311.032 247.276Z" fill="#263238" stroke="#263238" stroke-linecap="round" stroke-linejoin="round"/>
<path d="M216.858 235.666C216.858 235.666 198.041 245.006 191.583 247.585C185.124 250.164 183.536 251.321 182.961 252.902C182.386 254.482 157.255 293.975 154.389 297.567C151.522 301.16 145.336 308.912 146.198 314.221C147.06 319.53 153.957 324.136 160.567 323.992C167.177 323.848 171.344 322.555 172.062 320.687C172.781 318.819 191.022 286.202 191.022 286.202L196.77 322.534H270.159C270.159 322.534 275.907 272.846 275.907 265.518C275.907 258.189 277.344 249.575 274.326 247.707C271.309 245.839 258.815 241.536 249.619 238.518C240.423 235.501 237.556 234.926 235.408 234.926C233.26 234.926 216.858 235.666 216.858 235.666Z" fill="white" stroke="#263238" stroke-linecap="round" stroke-linejoin="round"/>
<path d="M214.867 235.925C214.867 235.925 212.425 240.523 212.281 244.259C212.137 247.995 211.563 254.885 209.407 259.052C207.252 263.219 205.671 265.518 206.821 265.079C207.97 264.641 214.573 257.327 215.291 255.739C216.01 254.152 217.159 257.176 217.159 257.176C217.159 257.176 215.004 263.348 214.717 264.21C214.429 265.072 223.762 276.991 223.762 276.991C223.762 276.991 231.808 270.676 233.676 269.239C235.544 267.802 234.97 266.653 235.113 264.785C235.257 262.917 235.832 260.194 236.83 258.613C237.829 257.033 240.717 263.226 242.722 266.1C244.726 268.973 246.745 269.979 246.458 267.824C246.17 265.668 245.164 261.501 244.446 254.173C243.727 246.845 243.871 238.087 242.003 235.357C240.135 232.627 230.336 232.088 223.906 231.628C222.148 231.432 220.372 231.731 218.775 232.49C217.178 233.249 215.825 234.438 214.867 235.925Z" fill="white" stroke="#263238" stroke-linecap="round" stroke-linejoin="round"/>
<path d="M185.857 260.388L191.029 286.223L184.348 269.045" stroke="#263238" stroke-linecap="round" stroke-linejoin="round"/>
<path d="M215.586 242.851C215.586 242.851 217.598 254.051 219.466 262.665C220.493 267.569 221.935 272.376 223.776 277.034C223.776 277.034 233.26 261.092 235.99 252.765C237.54 248.171 238.741 243.466 239.582 238.691H215.586V242.851Z" stroke="#263238" stroke-linecap="round" stroke-linejoin="round"/>
<path d="M226.068 246.701L220.902 253.167L224.495 260.065L220.96 268.621C221.739 271.467 222.68 274.266 223.776 277.006C223.776 277.006 226.736 272.034 229.818 266.229L227.225 260.244L230.386 253.06L226.068 246.701Z" fill="#D3EEFE" stroke="#263238" stroke-linecap="round" stroke-linejoin="round"/>
<path d="M215.586 238.684V242.851C215.586 242.851 216.973 250.581 218.51 258.132L225.781 250.459L233.447 258.951C234.406 256.935 235.252 254.868 235.983 252.758C237.533 248.164 238.734 243.459 239.575 238.684H215.586Z" fill="white" stroke="#263238" stroke-linecap="round" stroke-linejoin="round"/>
<path d="M152.973 301.821C152.973 301.821 166.387 296.921 173.621 308.84" stroke="#263238" stroke-linecap="round" stroke-linejoin="round"/>
<path d="M173.858 305.161C173.858 305.161 166.365 306.857 162.363 313.244C158.362 319.631 166.502 320.342 168.75 320.342C170.999 320.342 173.126 318.834 173.248 318.05C173.37 317.267 176.316 309.695 176.201 307.928C176.187 307.268 175.947 306.632 175.521 306.129C175.094 305.625 174.507 305.283 173.858 305.161Z" fill="white" stroke="#263238" stroke-linecap="round" stroke-linejoin="round"/>
<path d="M170.41 307.805C170.41 307.805 166.265 311.398 166.545 312.834C166.825 314.271 172.975 319.803 174.16 319.006C174.374 318.897 174.564 318.747 174.72 318.565C174.876 318.382 174.995 318.171 175.069 317.943C175.143 317.715 175.171 317.474 175.152 317.235C175.133 316.996 175.067 316.763 174.958 316.549C174.62 316.01 170.41 307.805 170.41 307.805Z" fill="white" stroke="#263238" stroke-linecap="round" stroke-linejoin="round"/>
<path d="M166.566 312.799C166.566 312.799 164.131 315.392 164.928 316.578C165.726 317.763 171.294 320.788 172.738 319.875C174.182 318.963 173.248 318.029 173.248 318.029L166.566 312.799Z" fill="white" stroke="#263238" stroke-linecap="round" stroke-linejoin="round"/>
<path d="M180.835 307.669L175.849 306.807L177.02 313.984L182.113 314.142L180.835 307.669Z" fill="white" stroke="#263238" stroke-linecap="round" stroke-linejoin="round"/>
<path d="M171.861 296.382L177.702 316.851L180.54 319.43V315.787L174.361 295.671C174.311 295.503 174.227 295.348 174.115 295.214C174.003 295.08 173.865 294.97 173.709 294.891C173.553 294.811 173.383 294.765 173.209 294.753C173.034 294.741 172.859 294.765 172.695 294.823C172.385 294.93 172.127 295.15 171.972 295.439C171.818 295.728 171.778 296.065 171.861 296.382Z" fill="#263238" stroke="#263238" stroke-linecap="round" stroke-linejoin="round"/>
<path d="M173.858 305.162C173.858 305.162 170.41 307.18 170.755 308.711C171.1 310.241 174.821 317.397 176.165 317.49C177.508 317.583 178.32 316.772 178.126 315.22C177.932 313.668 176.689 308.035 175.849 306.807C175.008 305.578 174.915 305.09 173.858 305.162Z" fill="white" stroke="#263238" stroke-linecap="round" stroke-linejoin="round"/>
<path d="M180.835 307.669C180.835 307.669 184.506 308.129 185.145 309.249C185.785 310.37 183.22 314.839 182.401 315.859C181.582 316.879 180.116 316.836 180.073 314.25C180.142 312.039 180.397 309.837 180.835 307.669Z" fill="white" stroke="#263238" stroke-linecap="round" stroke-linejoin="round"/>
<path d="M160.977 316.312H201.26C202.386 316.314 203.464 316.762 204.26 317.558C205.056 318.353 205.504 319.432 205.506 320.558C205.506 321.511 205.128 322.424 204.454 323.098C203.78 323.772 202.867 324.15 201.914 324.15H161.537C160.661 324.15 159.82 323.802 159.2 323.182C158.58 322.562 158.232 321.722 158.232 320.845V319.049C158.232 318.689 158.303 318.333 158.441 318C158.579 317.667 158.782 317.365 159.036 317.111C159.291 316.857 159.594 316.655 159.927 316.518C160.26 316.381 160.617 316.311 160.977 316.312Z" fill="white" stroke="#263238" stroke-linecap="round" stroke-linejoin="round"/>
<path d="M232.663 307.051C232.663 307.051 222.181 305.901 219.595 305.039C217.008 304.177 212.841 303.459 211.405 304.608C209.968 305.758 202.934 313.948 202.783 314.947C202.632 315.945 201.203 319.257 201.921 320.12C202.523 320.72 203.263 321.164 204.076 321.413C204.076 321.413 213.416 323.999 214.415 324.143C215.414 324.287 225.041 323.855 225.041 323.855L230.07 321.988L237.103 321.844C237.103 321.844 237.247 324.143 237.391 318.539C237.534 312.935 232.663 307.051 232.663 307.051Z" fill="white" stroke="#263238" stroke-linecap="round" stroke-linejoin="round"/>
<path d="M204.098 321.42C204.098 321.42 204.242 318.115 204.96 316.678C205.678 315.241 213.862 307.92 213.862 307.92" stroke="#263238" stroke-linecap="round" stroke-linejoin="round"/>
<path d="M206.799 322.268C206.799 322.268 208.236 318.675 208.811 318.388C209.386 318.101 216.132 313.79 216.132 313.79" stroke="#263238" stroke-linecap="round" stroke-linejoin="round"/>
<path d="M211.706 323.274C211.706 323.274 211.994 321.837 212.712 321.549C213.431 321.262 219.466 318.532 219.466 318.532" stroke="#263238" stroke-linecap="round" stroke-linejoin="round"/>
<path d="M218.172 323.992L220.902 323.274L220.615 321.98L217.741 322.699" stroke="#263238" stroke-linecap="round" stroke-linejoin="round"/>
<path d="M265.561 260.797C265.561 260.797 257.953 276.74 258.377 282.351C258.8 287.962 260.683 297.28 260.683 297.28C260.683 297.28 248.62 302.015 244.453 303.746C240.286 305.478 232.663 307.051 232.663 307.051L236.536 322.275L235.968 323.856H277.753C277.753 323.856 280.914 323.281 281.489 322.562C282.064 321.844 282.639 321.557 282.926 319.257C283.213 316.958 285.081 296.856 284.65 291.238C284.219 285.62 278.328 256.487 277.609 253.469C276.891 250.452 275.605 248.44 274.312 247.722C273.019 247.003 267.415 246.436 267.415 246.436" fill="white"/>
<path d="M265.561 260.797C265.561 260.797 257.953 276.74 258.377 282.351C258.8 287.962 260.683 297.28 260.683 297.28C260.683 297.28 248.62 302.015 244.453 303.746C240.286 305.478 232.663 307.051 232.663 307.051L236.536 322.275L235.968 323.856H277.753C277.753 323.856 280.914 323.281 281.489 322.562C282.064 321.844 282.639 321.557 282.926 319.257C283.213 316.958 285.081 296.856 284.65 291.238C284.219 285.62 278.328 256.487 277.609 253.469C276.891 250.452 275.605 248.44 274.312 247.722C273.019 247.003 267.415 246.436 267.415 246.436" stroke="#263238" stroke-linecap="round" stroke-linejoin="round"/>
<path d="M261.689 297.568C261.689 297.568 272.746 298.142 278.213 301.584" stroke="#263238" stroke-linecap="round" stroke-linejoin="round"/>
<path d="M263.693 296.131C263.693 296.131 271.452 295.7 275.619 296.993" stroke="#263238" stroke-linecap="round" stroke-linejoin="round"/>
<path d="M261.545 260.352C261.545 260.352 257.665 269.404 257.522 272.853C257.378 276.301 257.091 278.313 257.091 278.313" stroke="#263238" stroke-linecap="round" stroke-linejoin="round"/>
<path d="M243.878 236.385C243.878 236.385 252.636 248.857 245.595 283.637" stroke="#263238" stroke-width="2" stroke-linecap="round" stroke-linejoin="round"/>
<path d="M249.762 284.643C249.762 283.79 249.51 282.957 249.036 282.248C248.562 281.539 247.889 280.986 247.101 280.66C246.314 280.334 245.447 280.248 244.611 280.415C243.775 280.581 243.007 280.992 242.404 281.595C241.801 282.197 241.39 282.965 241.224 283.802C241.058 284.638 241.143 285.505 241.469 286.292C241.796 287.08 242.348 287.753 243.057 288.227C243.766 288.701 244.599 288.953 245.452 288.953C246.595 288.953 247.692 288.499 248.5 287.691C249.308 286.882 249.762 285.786 249.762 284.643Z" fill="white" stroke="#263238" stroke-linecap="round" stroke-linejoin="round"/>
<path d="M213.984 237.678C213.984 237.678 209.537 240.552 208.818 252.183" stroke="#263238" stroke-width="2" stroke-linecap="round" stroke-linejoin="round"/>
<path d="M214.997 269.807C213.912 277.652 212.432 286.08 212.123 287.926C211.405 291.877 206.713 293.257 203.696 291.964" stroke="#263238" stroke-width="2" stroke-linecap="round" stroke-linejoin="round"/>
<path d="M203.746 270.324C202.762 265.927 202.158 262.112 202.374 260.366C203.379 252.327 208.84 252.183 208.84 252.183C208.84 252.183 215.306 253.045 215.73 259.942C215.774 263.245 215.534 266.545 215.011 269.807" stroke="#263238" stroke-width="2" stroke-linecap="round" stroke-linejoin="round"/>
<path d="M215.873 291.389C215.873 291.389 212.856 293.113 210.844 291.964C209.486 291.188 205.815 279.491 203.746 270.324" stroke="#263238" stroke-width="2" stroke-linecap="round" stroke-linejoin="round"/>
<path d="M216.925 289.832L215.737 290.344C215.165 290.59 214.901 291.254 215.148 291.826L215.162 291.859C215.409 292.431 216.072 292.695 216.644 292.448L217.832 291.936C218.404 291.69 218.668 291.026 218.421 290.454L218.407 290.421C218.16 289.849 217.497 289.585 216.925 289.832Z" stroke="#263238" stroke-linecap="round" stroke-linejoin="round"/>
<path d="M204.068 290.611L202.96 289.945C202.425 289.624 201.733 289.797 201.412 290.331L201.393 290.362C201.073 290.896 201.245 291.589 201.779 291.91L202.888 292.575C203.422 292.896 204.115 292.723 204.436 292.189L204.454 292.159C204.775 291.624 204.602 290.932 204.068 290.611Z" stroke="#263238" stroke-linecap="round" stroke-linejoin="round"/>
<path d="M208.84 202.926C208.84 202.926 206.541 208.379 206.972 211.828C207.403 215.277 212.001 219.012 212.001 219.012C212.001 219.012 213.581 203.645 213.581 203.07C213.581 202.495 210.7 201.202 208.84 202.926Z" fill="#263238" stroke="#263238" stroke-linecap="round" stroke-linejoin="round"/>
<path d="M207.187 222.461L210.241 220.327" stroke="#263238" stroke-width="2" stroke-linecap="round" stroke-linejoin="round"/>
<path d="M210.557 203.932C210.557 203.932 209.982 219.156 210.269 222.023C210.557 224.889 211.706 234.086 212.712 236.959C213.718 239.833 217.023 249.022 219.609 250.028C222.196 251.034 227.361 251.752 229.086 250.603C230.81 249.453 237.125 245.15 238.849 240.983C239.872 238.553 240.549 235.992 240.861 233.374C242.295 232.609 243.533 231.524 244.48 230.204C245.427 228.883 246.057 227.362 246.321 225.759C247.183 220.299 244.884 218.725 244.884 218.725L245.028 209.242C245.028 209.242 243.447 202.639 239.28 199.047C235.113 195.455 230.235 195.167 225.206 197.897C220.177 200.627 210.557 203.932 210.557 203.932Z" fill="white" stroke="#263238" stroke-linecap="round" stroke-linejoin="round"/>
<path d="M237.556 203.07C237.556 203.07 237.7 199.334 234.115 200.627C230.53 201.921 229.66 204.363 224.344 206.519C219.027 208.674 211.994 206.231 209.558 204.794C207.123 203.358 205.391 201.346 208.696 197.61C212.001 193.874 219.753 190.145 228.094 190.145C236.435 190.145 242.887 197.035 245.617 199.909C248.347 202.783 248.778 206.375 247.772 208.954C246.767 211.533 244.899 218.725 244.899 218.725C244.899 218.725 243.749 218.581 243.318 220.299C242.887 222.016 243.031 223.891 241.163 224.034C239.295 224.178 239.438 219.156 239.438 219.156C239.438 219.156 234.847 217.719 234.273 214.414C233.698 211.11 237.556 206.231 237.556 203.07Z" fill="#263238" stroke="#263238" stroke-linecap="round" stroke-linejoin="round"/>
<path d="M220.45 224.803L207.166 222.461L207.934 228.417C207.982 228.787 208.147 229.133 208.406 229.402C208.665 229.671 209.003 229.85 209.371 229.911L217.447 231.183C217.891 231.255 218.345 231.151 218.714 230.893C219.083 230.636 219.337 230.245 219.422 229.804L220.45 224.803Z" stroke="#263238" stroke-width="2" stroke-linecap="round" stroke-linejoin="round"/>
<path d="M222.871 225.055L238.274 224.609L236.766 230.184C236.636 230.56 236.388 230.883 236.059 231.106C235.73 231.328 235.338 231.439 234.941 231.42L225.601 231.549C225.117 231.583 224.637 231.441 224.249 231.149C223.861 230.857 223.591 230.436 223.489 229.962L222.871 225.055Z" stroke="#263238" stroke-width="2" stroke-linecap="round" stroke-linejoin="round"/>
<path d="M220.471 224.803L222.871 225.055" stroke="#263238" stroke-width="2" stroke-linecap="round" stroke-linejoin="round"/>
<path d="M238.274 224.609L243.304 220.298" stroke="#263238" stroke-width="2" stroke-linecap="round" stroke-linejoin="round"/>
<path d="M224.918 223.316C224.918 223.316 229.229 220.018 233.252 222.023" stroke="#263238" stroke-width="2" stroke-linecap="round" stroke-linejoin="round"/>
<path d="M218.46 222.598C218.46 222.598 215.155 219.005 211.419 221.448" stroke="#263238" stroke-width="2" stroke-linecap="round" stroke-linejoin="round"/>
<path d="M219.322 235.091C219.322 235.091 218.603 238.109 219.322 238.684C220.545 239.359 221.957 239.611 223.338 239.402" stroke="#263238" stroke-linecap="round" stroke-linejoin="round"/>
<path d="M217.167 240.954C217.167 240.954 220.04 243.109 222.77 243.253C225.501 243.397 228.654 241.385 228.654 241.385" stroke="#263238" stroke-linecap="round" stroke-linejoin="round"/>
<path d="M227.792 226.333C227.792 226.333 229.517 228.345 232.39 226.19" stroke="#263238" stroke-linecap="round" stroke-linejoin="round"/>
<path d="M213.646 225.45C213.646 225.45 215.083 227.677 218.215 225.931" stroke="#263238" stroke-linecap="round" stroke-linejoin="round"/>
<path d="M124.537 203.056C124.537 203.056 125.449 216.742 124.76 217.885L122.741 221.304C122.741 221.304 123.653 231.118 121.828 232.254C120.415 233.011 118.863 233.477 117.266 233.626C117.266 233.626 115.441 240.925 114.752 241.838C114.062 242.75 109.96 245.717 108.595 246.148C107.23 246.579 102.89 246.867 92.6236 240.674C82.3569 234.481 78.4773 232.462 78.7072 229.042C78.9371 225.622 79.4257 221.743 79.4257 221.743C79.4257 221.743 80.568 205.312 82.6228 200.297C84.6775 195.282 110.685 192.538 116.39 193.91C122.094 195.282 124.537 203.056 124.537 203.056Z" fill="white" stroke="#263238" stroke-linecap="round" stroke-linejoin="round"/>
<path d="M98.0695 225.637L99.6716 226.779C99.6716 226.779 98.2994 232.254 98.9531 234.768" stroke="#263238" stroke-linecap="round" stroke-linejoin="round"/>
<path d="M120.88 221.053C120.65 222.102 120.097 222.863 119.652 222.763C119.206 222.662 119.027 221.743 119.264 220.694C119.501 219.645 120.047 218.883 120.492 218.984C120.938 219.084 121.117 220.011 120.88 221.053Z" fill="#263238"/>
<path d="M118.552 216.864C118.552 216.864 121.038 214.378 123.115 216.728" stroke="#263238" stroke-linecap="round" stroke-linejoin="round"/>
<path d="M115.413 201.231C115.413 201.231 118.373 206.706 118.15 207.848C117.927 208.99 108.566 211.727 108.566 211.727C108.566 211.727 107.654 217.202 106.281 217.885L104.916 218.567C103.822 217.081 102.903 215.473 102.179 213.775C100.584 210.355 98.2994 209.464 95.792 212.863C93.2846 216.261 95.3322 224.272 96.7044 224.954L98.0695 225.637C98.0695 225.637 96.9271 226.779 92.5949 227.469C88.2627 228.158 85.0656 229.064 81.8757 228.151C78.6858 227.239 74.1164 218.567 72.5359 207.388C70.9553 196.209 75.9557 186.632 82.5941 183.679C89.2326 180.726 104.27 183.449 105.405 184.132C106.54 184.814 114.306 181.172 118.869 183.449C123.431 185.727 123.179 188.241 124.343 189.836C125.507 191.431 131.413 189.384 131.872 195.088C132.332 200.793 130.048 204.212 127.08 204.665C124.113 205.118 115.413 201.231 115.413 201.231Z" fill="#263238" stroke="#263238" stroke-linecap="round" stroke-linejoin="round"/>
<path d="M61.3927 237.045C61.3927 237.045 39.5303 248.706 35.3633 251.012C31.1963 253.318 30.5713 255.387 30.3342 257.478C30.0971 259.569 30.3342 329.934 30.3342 329.934H148.425C148.425 329.934 130.515 276.158 129.925 270.152C129.336 264.145 128.057 253.491 126.391 252.241C124.724 250.991 101.187 240.58 101.187 240.58C101.187 240.58 95.562 234.545 82.242 234.545C68.922 234.545 61.3927 237.045 61.3927 237.045Z" fill="#D3EEFE" stroke="#263238" stroke-linecap="round" stroke-linejoin="round"/>
<path d="M74.9282 279.887C75.5461 280.131 76.1711 280.354 76.7962 280.562" stroke="#263238" stroke-linecap="round" stroke-linejoin="round"/>
<path d="M51.6146 260.575C51.6146 260.575 60.236 272.602 72.0113 278.536" stroke="#263238" stroke-linecap="round" stroke-linejoin="round"/>
<path d="M59.1008 274.52C59.1008 274.52 63.8857 279.312 73.8793 282.02" stroke="#263238" stroke-linecap="round" stroke-linejoin="round"/>
<path d="M118.43 257.263C115.104 261.042 110.42 267.084 108.868 272.645" stroke="#263238" stroke-linecap="round" stroke-linejoin="round"/>
<path d="M121.979 253.491C121.979 253.491 121.318 254.13 120.284 255.229" stroke="#263238" stroke-linecap="round" stroke-linejoin="round"/>
<path d="M110.111 265.985C110.111 265.985 106.985 272.02 106.368 275.77" stroke="#263238" stroke-linecap="round" stroke-linejoin="round"/>
<path d="M60.1426 238.08C60.1426 238.08 72.2197 237.663 83.6717 237.872C95.1238 238.08 102.624 241.622 102.624 241.622C102.624 241.622 95.7488 233.295 92.6308 231.42C89.5127 229.545 79.9286 226.391 72.0185 228.92C67.1456 230.557 62.9635 233.783 60.1426 238.08Z" fill="#D3EEFE" stroke="#263238" stroke-linecap="round" stroke-linejoin="round"/>
<path d="M25.8008 329.855L14.7942 287.653C14.6874 287.141 14.6961 286.611 14.8199 286.102C14.9437 285.593 15.1793 285.119 15.5097 284.713C15.84 284.307 16.2568 283.98 16.7295 283.755C17.2023 283.53 17.7193 283.414 18.2427 283.414H105.814C106.619 283.415 107.399 283.69 108.026 284.194C108.653 284.699 109.089 285.402 109.263 286.187L118.983 329.898" fill="#263238"/>
<path d="M25.8008 329.855L14.7942 287.653C14.6874 287.141 14.6961 286.611 14.8199 286.102C14.9437 285.593 15.1793 285.119 15.5097 284.713C15.84 284.307 16.2568 283.98 16.7295 283.755C17.2023 283.53 17.7193 283.414 18.2427 283.414H105.814C106.619 283.415 107.399 283.69 108.026 284.194C108.653 284.699 109.089 285.402 109.263 286.187L118.983 329.898" stroke="#263238" stroke-linecap="round" stroke-linejoin="round"/>
</svg>
